<svg xmlns="http://www.w3.org/2000/svg" width="49" height="41" fill="none" viewBox="0 0 49 41">
  <path fill="#0FA7B4" d="M11.093 16 4 20.095l7.093 4.105 7.093-4.105L11.093 16Z"/>
  <path fill="#000" fill-rule="evenodd" d="m11.093 16.346 6.793 3.922v7.844l-6.793 3.922L4.3 28.112v-7.844l6.793-3.922ZM4 20.095 11.093 16l7.093 4.095v8.19l-7.093 4.095L4 28.285v-8.19Z" clip-rule="evenodd"/>
  <path fill="#05646D" d="M11.093 24.19v8.19l7.093-4.095v-8.19l-7.093 4.095Z"/>
  <path fill="#05646D" d="M11.093 24.19v8.19l7.093-4.095v-8.19l-7.093 4.095Z"/>
  <path fill="#098590" d="M11.093 24.19v8.19L4 28.285v-8.19l7.093 4.095Z"/>
  <path fill="#15D0E0" fill-rule="evenodd" d="M18.186 20.095 11.093 16 4 20.095v8.19l7.093 4.095 7.093-4.095v-8.19Zm-7.093-3.749 6.493 3.75-6.493 3.757L4.6 20.095l6.494-3.749Zm-.3 8.017L4.3 20.614v7.498l6.493 3.748v-7.497Zm7.093-3.749-6.493 3.749v7.497l6.492-3.748v-7.498Z" clip-rule="evenodd"/>
  <path fill="#098590" d="M24.402 36.76V20.38l-14.185-8.19v8.226l7.065 4.079v8.155l7.12 4.11Z"/>
  <path fill="#0FA7B4" d="m38.587 20.388-7.08 4.087v-8.19l7.08-4.087v-.008l-14.185 8.19v16.38l14.185-8.19v-8.182Z"/>
  <path fill="#05646D" d="M31.591 16.337v.064-8.254l-7.093 4.095 7.093 4.095Z"/>
  <path fill="#02454B" d="M31.51 16.285v8.19l7.092-4.095-7.093-4.095Z"/>
  <path fill="#15D0E0" d="M37.092 8 30 12.095v8.19l7.092 4.095 7.093-4.095v-8.19L37.092 8Z"/>
  <path fill="#0FA7B4" d="M37.092 16.19v8.19l7.093-4.095v-8.19l-7.093 4.095Z"/>
  <path fill="#098590" d="M37.092 16.19v8.19L30 20.285v-8.19l7.092 4.095Z"/>
  <path fill="url(#a)" fill-rule="evenodd" d="M44.185 12.095 37.092 8 30 12.095v8.19l7.092 4.095 7.093-4.095v-8.19Zm-7.093-3.749 6.493 3.75-6.493 3.757-6.493-3.758 6.493-3.749Zm-.3 8.017-6.493-3.749v7.497l6.493 3.75v-7.498Zm7.093-3.749-6.493 3.749v7.497l6.493-3.748v-7.498Z" clip-rule="evenodd"/>
  <path fill="#0FA7B4" d="m31.502 32.65-7.1 4.15V20.4l7.1-4.11v16.36Z"/>
  <path fill="#15D0E0" d="m24.502 12.25 7 4.04-7.1 4.11-14.2-8.2 14.2-8.2 7.2 4.15-7.1 4.1Z"/>
  <path fill="url(#b)" fill-rule="evenodd" d="M31.602 8.15 24.402 4l-14.184 8.191h-.001v.001l-.014.008.013.008v8.147l7.066 4.08v8.19l7.12 4.135V28.7v8.1l5.52-3.226 8.665-5.003v-5.054l-.3.173v4.707l-6.77 3.91.033-7.51 3.133-1.808-.3-.173-2.831 1.634v-.011h-.044v-8.154l1.19-.687v-.008l-1.203.695-6.773-3.908.006-.01-.214-.124 7.088-4.093Zm-6.9 28.127v-7.576l6.506-3.717v.011l.042-.024-.034 7.509-1.446.835-5.068 2.962Zm0-7.921 6.506-3.718v-7.84l-6.506 3.756v7.802Zm6.3-20.206-6.787 3.92-6.577-3.817 6.764-3.907 6.6 3.804Zm-7.096 4.087-6.568-3.811-6.535 3.774 6.199 3.58 6.904-3.543Zm.294.185-6.889 3.537 7.09 4.095 6.501-3.764-6.702-3.868Zm-6.618 20.055V24.26l-7.066-4.08v-7.47l13.586 7.844V36.24l-6.52-3.764Z" clip-rule="evenodd"/>
  <path fill="url(#c)" d="m34.376 14.622.007.004 4.204-2.428v-.008l-4.21 2.432Z"/>
  <defs>
    <linearGradient id="a" x1="24.093" x2="23.823" y1="36.799" y2="3.998" gradientUnits="userSpaceOnUse">
      <stop stop-color="#05646D"/>
      <stop offset=".613" stop-color="#15D0E0"/>
      <stop offset="1" stop-color="#098590"/>
    </linearGradient>
    <linearGradient id="b" x1="26.402" x2="15.344" y1="-1" y2="32.206" gradientUnits="userSpaceOnUse">
      <stop stop-color="#127E88"/>
      <stop offset=".539" stop-color="#44F0FF"/>
      <stop offset="1" stop-color="#0B717A"/>
    </linearGradient>
    <linearGradient id="c" x1="26.402" x2="15.344" y1="-1" y2="32.206" gradientUnits="userSpaceOnUse">
      <stop stop-color="#127E88"/>
      <stop offset=".539" stop-color="#44F0FF"/>
      <stop offset="1" stop-color="#0B717A"/>
    </linearGradient>
  </defs>
</svg>
