<svg width="1689" height="993" viewBox="0 0 1689 993" fill="none" xmlns="http://www.w3.org/2000/svg">
<g filter="url(#filter0_d_6_6543)">
<g clip-path="url(#clip0_6_6543)">
<rect x="4" width="1681" height="985" rx="20" fill="#1C2033"/>
<g style="mix-blend-mode:luminosity">
<rect width="1681" height="985" transform="translate(4)" fill="#F5F6F7"/>
<g style="mix-blend-mode:luminosity">
<mask id="path-2-inside-1_6_6543" fill="white">
<path d="M4 0H1685V52H4V0Z"/>
</mask>
<path d="M1685 52V51H4V52V53H1685V52Z" fill="#E9E9E9" mask="url(#path-2-inside-1_6_6543)"/>
<g style="mix-blend-mode:luminosity">
<g style="mix-blend-mode:luminosity">
<path d="M50.667 15.3333H29.3337C27.8537 15.3333 26.667 16.5333 26.667 18V34C26.667 35.4667 27.8537 36.6667 29.3337 36.6667H50.667C52.1337 36.6667 53.3337 35.4667 53.3337 34V18C53.3337 16.5333 52.147 15.3333 50.667 15.3333ZM50.667 34H29.3337V20.6667H50.667V34ZM48.0003 32.6667H40.0003V30H48.0003V32.6667ZM34.0003 32.6667L32.1203 30.7867L35.5603 27.3333L32.107 23.88L34.0003 22L39.3337 27.3333L34.0003 32.6667Z" fill="black" fill-opacity="0.7"/>
</g>
<rect x="64" y="10" width="237" height="20" rx="8" fill="#A9AFB8" fill-opacity="0.7"/>
</g>
<g style="mix-blend-mode:luminosity">
<g style="mix-blend-mode:luminosity">
<g style="mix-blend-mode:luminosity">
<rect x="1265" y="8" width="400" height="36" rx="18" fill="#F4F4F4"/>
<rect x="1265.5" y="8.5" width="399" height="35" rx="17.5" stroke="#E3E3E3" stroke-opacity="0.7"/>
<rect x="1281" y="18" width="96" height="16" rx="8" fill="#A9AFB8" fill-opacity="0.7"/>
<g style="mix-blend-mode:luminosity">
<path d="M1400.75 28.255H1399.96L1399.68 27.985C1400.66 26.845 1401.25 25.365 1401.25 23.755C1401.25 20.165 1398.34 17.255 1394.75 17.255C1391.16 17.255 1388.25 20.165 1388.25 23.755C1388.25 27.345 1391.16 30.255 1394.75 30.255C1396.36 30.255 1397.84 29.665 1398.98 28.685L1399.25 28.965V29.755L1404.25 34.745L1405.74 33.255L1400.75 28.255ZM1394.75 28.255C1392.26 28.255 1390.25 26.245 1390.25 23.755C1390.25 21.265 1392.26 19.255 1394.75 19.255C1397.24 19.255 1399.25 21.265 1399.25 23.755C1399.25 26.245 1397.24 28.255 1394.75 28.255Z" fill="#404040" fill-opacity="0.7"/>
</g>
</g>
</g>
</g>
</g>
<g style="mix-blend-mode:luminosity">
<g style="mix-blend-mode:luminosity">
<mask id="path-10-inside-2_6_6543" fill="white">
<path d="M4 52H260V985H4V52Z"/>
</mask>
<path d="M260 52H259V985H260H261V52H260Z" fill="#E9E9E9" mask="url(#path-10-inside-2_6_6543)"/>
<g style="mix-blend-mode:luminosity">
<g style="mix-blend-mode:luminosity">
<g style="mix-blend-mode:luminosity">
<g style="mix-blend-mode:luminosity">
<path d="M51 74H37C35.89 74 35 74.9 35 76V90C35 91.1 35.89 92 37 92H51C52.1 92 53 91.1 53 90V76C53 74.9 52.1 74 51 74ZM51 90H37V76H51V90ZM43 88H45V84H49V82H45V78H43V82H39V84H43V88Z" fill="#404040" fill-opacity="0.7"/>
</g>
<rect x="60" y="76" width="85" height="14" rx="7" fill="#A9AFB8" fill-opacity="0.7"/>
</g>
</g>
<g style="mix-blend-mode:luminosity">
<g style="mix-blend-mode:luminosity">
<g style="mix-blend-mode:luminosity">
<path d="M51 108H37C35.89 108 35 108.9 35 110V124C35 125.1 35.89 126 37 126H51C52.1 126 53 125.1 53 124V110C53 108.9 52.1 108 51 108ZM51 124H37V110H51V124ZM43 122H45V118H49V116H45V112H43V116H39V118H43V122Z" fill="#404040" fill-opacity="0.7"/>
</g>
<rect x="60" y="110" width="73" height="14" rx="7" fill="#A9AFB8" fill-opacity="0.7"/>
</g>
</g>
<g style="mix-blend-mode:luminosity">
<mask id="path-18-inside-3_6_6543" fill="white">
<path d="M24 140C24 137.791 25.7909 136 28 136H236C238.209 136 240 137.791 240 140V162C240 164.209 238.209 166 236 166H28C25.7909 166 24 164.209 24 162V140Z"/>
</mask>
<path d="M24 140C24 137.791 25.7909 136 28 136H236C238.209 136 240 137.791 240 140V162C240 164.209 238.209 166 236 166H28C25.7909 166 24 164.209 24 162V140Z" fill="#E9E9E9"/>
<path d="M24 136H240H24M24 136M240 166H24H240M28 166C23.5817 166 20 162.418 20 158V144C20 139.582 23.5817 136 28 136C28 136 28 137.791 28 140V162C28 164.209 28 166 28 166ZM28 166M240 136V166V136" fill="#0076CB" mask="url(#path-18-inside-3_6_6543)"/>
<g style="mix-blend-mode:luminosity">
<g style="mix-blend-mode:luminosity">
<path d="M51 142H37C35.89 142 35 142.9 35 144V158C35 159.1 35.89 160 37 160H51C52.1 160 53 159.1 53 158V144C53 142.9 52.1 142 51 142ZM51 158H37V144H51V158ZM43 156H45V152H49V150H45V146H43V150H39V152H43V156Z" fill="#404040" fill-opacity="0.7"/>
</g>
<rect x="60" y="144" width="95" height="14" rx="7" fill="#A9AFB8" fill-opacity="0.7"/>
</g>
</g>
<g style="mix-blend-mode:luminosity">
<g style="mix-blend-mode:luminosity">
<g style="mix-blend-mode:luminosity">
<path d="M51 176H37C35.89 176 35 176.9 35 178V192C35 193.1 35.89 194 37 194H51C52.1 194 53 193.1 53 192V178C53 176.9 52.1 176 51 176ZM51 192H37V178H51V192ZM43 190H45V186H49V184H45V180H43V184H39V186H43V190Z" fill="#404040" fill-opacity="0.7"/>
</g>
<rect x="60" y="178" width="57" height="14" rx="7" fill="#A9AFB8" fill-opacity="0.7"/>
</g>
</g>
<g style="mix-blend-mode:luminosity">
<g style="mix-blend-mode:luminosity">
<g style="mix-blend-mode:luminosity">
<path d="M51 210H37C35.89 210 35 210.9 35 212V226C35 227.1 35.89 228 37 228H51C52.1 228 53 227.1 53 226V212C53 210.9 52.1 210 51 210ZM51 226H37V212H51V226ZM43 224H45V220H49V218H45V214H43V218H39V220H43V224Z" fill="#404040" fill-opacity="0.7"/>
</g>
<rect x="60" y="212" width="50" height="14" rx="7" fill="#A9AFB8" fill-opacity="0.7"/>
</g>
</g>
<g style="mix-blend-mode:luminosity">
<g style="mix-blend-mode:luminosity">
<g style="mix-blend-mode:luminosity">
<path d="M51 244H37C35.89 244 35 244.9 35 246V260C35 261.1 35.89 262 37 262H51C52.1 262 53 261.1 53 260V246C53 244.9 52.1 244 51 244ZM51 260H37V246H51V260ZM43 258H45V254H49V252H45V248H43V252H39V254H43V258Z" fill="#404040" fill-opacity="0.7"/>
</g>
<rect x="60" y="246" width="139" height="14" rx="7" fill="#A9AFB8" fill-opacity="0.7"/>
</g>
</g>
</g>
<g style="mix-blend-mode:luminosity">
<mask id="path-31-inside-4_6_6543" fill="white">
<path d="M24 893H240V969H24V893Z"/>
</mask>
<path d="M24 893V894H240V893V892H24V893Z" fill="#E9E9E9" fill-opacity="0.7" mask="url(#path-31-inside-4_6_6543)"/>
<g style="mix-blend-mode:luminosity">
<path d="M28 905.5H236C237.933 905.5 239.5 907.067 239.5 909V931C239.5 932.933 237.933 934.5 236 934.5H28C26.067 934.5 24.5 932.933 24.5 931V909C24.5 907.067 26.067 905.5 28 905.5Z" stroke="#E9E9E9" stroke-opacity="0.7"/>
<g style="mix-blend-mode:luminosity">
<g style="mix-blend-mode:luminosity">
<path d="M51 911H37C35.89 911 35 911.9 35 913V927C35 928.1 35.89 929 37 929H51C52.1 929 53 928.1 53 927V913C53 911.9 52.1 911 51 911ZM51 927H37V913H51V927ZM43 925H45V921H49V919H45V915H43V919H39V921H43V925Z" fill="#404040" fill-opacity="0.7"/>
</g>
<rect x="60" y="913" width="78" height="14" rx="7" fill="#A9AFB8" fill-opacity="0.7"/>
</g>
</g>
<g style="mix-blend-mode:luminosity">
<path d="M28 939.5H236C237.933 939.5 239.5 941.067 239.5 943V965C239.5 966.933 237.933 968.5 236 968.5H28C26.067 968.5 24.5 966.933 24.5 965V943C24.5 941.067 26.067 939.5 28 939.5Z" stroke="#E9E9E9" stroke-opacity="0.7"/>
<g style="mix-blend-mode:luminosity">
<g style="mix-blend-mode:luminosity">
<path d="M51 945H37C35.89 945 35 945.9 35 947V961C35 962.1 35.89 963 37 963H51C52.1 963 53 962.1 53 961V947C53 945.9 52.1 945 51 945ZM51 961H37V947H51V961ZM43 959H45V955H49V953H45V949H43V953H39V955H43V959Z" fill="#404040" fill-opacity="0.7"/>
</g>
<rect x="60" y="947" width="87" height="14" rx="7" fill="#A9AFB8" fill-opacity="0.7"/>
</g>
</g>
</g>
</g>
<g style="mix-blend-mode:luminosity">
<rect width="1425" height="40" transform="translate(260 52)" fill="white"/>
<g style="mix-blend-mode:luminosity">
<g style="mix-blend-mode:luminosity" clip-path="url(#clip1_6_6543)">
<path d="M276 60H300V84H276V60Z" fill="#D5D8DC"/>
<path d="M283 65H285V63H283V65ZM283 73H285V71H283V73ZM283 81H285V79H283V81ZM287 77H289V75H287V77ZM287 81H289V79H287V81ZM279 81H281V79H279V81ZM279 77H281V75H279V77ZM279 73H281V71H279V73ZM279 69H281V67H279V69ZM279 65H281V63H279V65ZM287 73H289V71H287V73ZM295 77H297V75H295V77ZM295 73H297V71H295V73ZM295 81H297V79H295V81ZM295 69H297V67H295V69ZM287 69H289V67H287V69ZM295 63V65H297V63H295ZM287 65H289V63H287V65ZM291 81H293V79H291V81ZM291 73H293V71H291V73ZM291 65H293V63H291V65Z" fill="#4C4C4C" fill-opacity="0.7"/>
</g>
<g style="mix-blend-mode:luminosity">
<rect x="308" y="64" width="117" height="16" rx="8" fill="#A9AFB8" fill-opacity="0.7"/>
<g style="mix-blend-mode:luminosity" clip-path="url(#clip2_6_6543)">
<path d="M425 60H449V84H425V60Z" fill="#D5D8DC"/>
<path d="M432.41 68.59L437 73.17L441.59 68.59L443 70L437 76L431 70L432.41 68.59Z" fill="#404040" fill-opacity="0.7"/>
</g>
</g>
</g>
<g style="mix-blend-mode:luminosity">
<g style="mix-blend-mode:luminosity" clip-path="url(#clip3_6_6543)">
<path d="M495 60H519V84H495V60Z" fill="#D5D8DC"/>
<path d="M502 65H504V63H502V65ZM502 73H504V71H502V73ZM502 81H504V79H502V81ZM506 77H508V75H506V77ZM506 81H508V79H506V81ZM498 81H500V79H498V81ZM498 77H500V75H498V77ZM498 73H500V71H498V73ZM498 69H500V67H498V69ZM498 65H500V63H498V65ZM506 73H508V71H506V73ZM514 77H516V75H514V77ZM514 73H516V71H514V73ZM514 81H516V79H514V81ZM514 69H516V67H514V69ZM506 69H508V67H506V69ZM514 63V65H516V63H514ZM506 65H508V63H506V65ZM510 81H512V79H510V81ZM510 73H512V71H510V73ZM510 65H512V63H510V65Z" fill="#4C4C4C" fill-opacity="0.7"/>
</g>
<g style="mix-blend-mode:luminosity">
<rect x="527" y="64" width="117" height="16" rx="8" fill="#A9AFB8" fill-opacity="0.7"/>
</g>
</g>
<g style="mix-blend-mode:luminosity">
<g style="mix-blend-mode:luminosity" clip-path="url(#clip4_6_6543)">
<path d="M690 60H714V84H690V60Z" fill="#D5D8DC"/>
<path d="M697 65H699V63H697V65ZM697 73H699V71H697V73ZM697 81H699V79H697V81ZM701 77H703V75H701V77ZM701 81H703V79H701V81ZM693 81H695V79H693V81ZM693 77H695V75H693V77ZM693 73H695V71H693V73ZM693 69H695V67H693V69ZM693 65H695V63H693V65ZM701 73H703V71H701V73ZM709 77H711V75H709V77ZM709 73H711V71H709V73ZM709 81H711V79H709V81ZM709 69H711V67H709V69ZM701 69H703V67H701V69ZM709 63V65H711V63H709ZM701 65H703V63H701V65ZM705 81H707V79H705V81ZM705 73H707V71H705V73ZM705 65H707V63H705V65Z" fill="#4C4C4C" fill-opacity="0.7"/>
</g>
<g style="mix-blend-mode:luminosity">
<rect x="722" y="64" width="117" height="16" rx="8" fill="#A9AFB8" fill-opacity="0.7"/>
<g style="mix-blend-mode:luminosity" clip-path="url(#clip5_6_6543)">
<path d="M839 60H863V84H839V60Z" fill="#D5D8DC"/>
<path d="M846.41 68.59L851 73.17L855.59 68.59L857 70L851 76L845 70L846.41 68.59Z" fill="#404040" fill-opacity="0.7"/>
</g>
</g>
</g>
<g style="mix-blend-mode:luminosity">
<g style="mix-blend-mode:luminosity" clip-path="url(#clip6_6_6543)">
<path d="M909 60H933V84H909V60Z" fill="#D5D8DC"/>
<path d="M916 65H918V63H916V65ZM916 73H918V71H916V73ZM916 81H918V79H916V81ZM920 77H922V75H920V77ZM920 81H922V79H920V81ZM912 81H914V79H912V81ZM912 77H914V75H912V77ZM912 73H914V71H912V73ZM912 69H914V67H912V69ZM912 65H914V63H912V65ZM920 73H922V71H920V73ZM928 77H930V75H928V77ZM928 73H930V71H928V73ZM928 81H930V79H928V81ZM928 69H930V67H928V69ZM920 69H922V67H920V69ZM928 63V65H930V63H928ZM920 65H922V63H920V65ZM924 81H926V79H924V81ZM924 73H926V71H924V73ZM924 65H926V63H924V65Z" fill="#4C4C4C" fill-opacity="0.7"/>
</g>
<g style="mix-blend-mode:luminosity">
<rect x="941" y="64" width="117" height="16" rx="8" fill="#A9AFB8" fill-opacity="0.7"/>
</g>
</g>
</g>
<g style="mix-blend-mode:luminosity">
<g style="mix-blend-mode:luminosity">
<g style="mix-blend-mode:luminosity">
<g style="mix-blend-mode:luminosity">
<g style="mix-blend-mode:luminosity">
<g style="mix-blend-mode:luminosity" clip-path="url(#clip7_6_6543)">
<path d="M292 116H310V134H292V116Z" fill="#D5D8DC"/>
<path d="M301 118.25L295 122.75V131.75H298.75V126.5H303.25V131.75H307V122.75L301 118.25Z" fill="#4C4C4C" fill-opacity="0.7"/>
</g>
<g style="mix-blend-mode:luminosity">
<rect x="318" y="118.5" width="64" height="13" rx="6.5" fill="#A9AFB8" fill-opacity="0.7"/>
</g>
<g style="mix-blend-mode:luminosity" clip-path="url(#clip8_6_6543)">
<path d="M390 116H408V134H390V116Z" fill="#D5D8DC"/>
<path d="M396.442 128.443L399.877 125L396.442 121.557L397.5 120.5L402 125L397.5 129.5L396.442 128.443Z" fill="#4C4C4C" fill-opacity="0.7"/>
</g>
</g>
<g style="mix-blend-mode:luminosity">
<g style="mix-blend-mode:luminosity">
<rect x="416" y="118.5" width="97" height="13" rx="6.5" fill="#A9AFB8" fill-opacity="0.7"/>
</g>
<g style="mix-blend-mode:luminosity" clip-path="url(#clip9_6_6543)">
<path d="M521 116H539V134H521V116Z" fill="#D5D8DC"/>
<path d="M527.442 128.443L530.877 125L527.442 121.557L528.5 120.5L533 125L528.5 129.5L527.442 128.443Z" fill="#4C4C4C" fill-opacity="0.7"/>
</g>
</g>
<g style="mix-blend-mode:luminosity">
<g style="mix-blend-mode:luminosity">
<rect x="551" y="118.5" width="85" height="13" rx="6.5" fill="#A9AFB8" fill-opacity="0.7"/>
</g>
<g style="mix-blend-mode:luminosity" clip-path="url(#clip10_6_6543)">
<path d="M644 116H662V134H644V116Z" fill="#D5D8DC"/>
<path d="M650.442 128.443L653.877 125L650.442 121.557L651.5 120.5L656 125L651.5 129.5L650.442 128.443Z" fill="#4C4C4C" fill-opacity="0.7"/>
</g>
</g>
<g style="mix-blend-mode:luminosity">
<g style="mix-blend-mode:luminosity">
<path d="M670 120.5C670 119.395 670.895 118.5 672 118.5H751C752.105 118.5 753 119.395 753 120.5V129.5C753 130.605 752.105 131.5 751 131.5H672C670.895 131.5 670 130.605 670 129.5V120.5Z" fill="#E3E3E3"/>
<rect x="674" y="118.5" width="75" height="13" rx="6.5" fill="#A9AFB8" fill-opacity="0.7"/>
</g>
</g>
</g>
<rect x="292" y="154" width="225" height="25" rx="8" fill="#A9AFB8" fill-opacity="0.7"/>
<rect x="292" y="195" width="413" height="16" rx="8" fill="#A9AFB8" fill-opacity="0.7"/>
</g>
<g style="mix-blend-mode:luminosity">
<g style="mix-blend-mode:luminosity">
<rect width="1361" height="54" transform="translate(292 243)" fill="#F9F9F9"/>
<g style="mix-blend-mode:luminosity" opacity="0.6">
<rect x="1297" y="259" width="119" height="30" rx="4" fill="#0076CB"/>
<circle cx="1315" cy="274" r="8" fill="white" fill-opacity="0.7"/>
<rect x="1331" y="267" width="75" height="14" rx="7" fill="#A9AFB8" fill-opacity="0.7"/>
</g>
<g style="mix-blend-mode:luminosity" opacity="0.5">
<rect x="1424" y="259" width="111" height="30" rx="4" fill="#E9E9E9"/>
<circle cx="1442" cy="274" r="8" fill="white" fill-opacity="0.7"/>
<rect x="1458" y="267" width="67" height="14" rx="7" fill="#A9AFB8" fill-opacity="0.7"/>
</g>
<g style="mix-blend-mode:luminosity" opacity="0.5">
<rect x="1543" y="259" width="94" height="30" rx="4" fill="#E9E9E9"/>
<circle cx="1561" cy="274" r="8" fill="white" fill-opacity="0.7"/>
<rect x="1577" y="267" width="50" height="14" rx="7" fill="#A9AFB8" fill-opacity="0.7"/>
</g>
</g>
<g style="mix-blend-mode:luminosity">
<rect width="1361" height="86" transform="translate(292 297)" fill="#F9F9F9"/>
<g style="mix-blend-mode:luminosity">
<g style="mix-blend-mode:luminosity">
<g style="mix-blend-mode:luminosity">
<rect x="308" y="305" width="273" height="38" rx="4" fill="white"/>
<rect x="308.5" y="305.5" width="272" height="37" rx="3.5" stroke="#E3E3E3" stroke-opacity="0.7"/>
<g style="mix-blend-mode:luminosity">
<rect x="310" y="307" width="144" height="34" rx="2" fill="#E9E9E9"/>
<g style="mix-blend-mode:luminosity">
<g style="mix-blend-mode:luminosity">
<g style="mix-blend-mode:luminosity">
<g style="mix-blend-mode:luminosity">
<rect x="318" y="312" width="84" height="12" rx="6" fill="#A9AFB8" fill-opacity="0.7"/>
<rect x="318" y="321" width="62" height="16" rx="8" fill="#A9AFB8" fill-opacity="0.7"/>
</g>
</g>
</g>
<g style="mix-blend-mode:luminosity">
<path d="M429.41 320.295L434 324.875L438.59 320.295L440 321.705L434 327.705L428 321.705L429.41 320.295Z" fill="#4C4C4C" fill-opacity="0.7"/>
</g>
</g>
</g>
<g style="mix-blend-mode:luminosity">
<rect x="470" y="316" width="24" height="16" rx="8" fill="#A9AFB8" fill-opacity="0.7"/>
<g style="mix-blend-mode:luminosity">
<g style="mix-blend-mode:luminosity">
<path d="M516.41 320.295L521 324.875L525.59 320.295L527 321.705L521 327.705L515 321.705L516.41 320.295Z" fill="#4C4C4C" fill-opacity="0.7"/>
</g>
<g style="mix-blend-mode:luminosity">
<path d="M545.255 317.61C547.275 320.2 551.005 325 551.005 325V331C551.005 331.55 551.455 332 552.005 332H554.005C554.555 332 555.005 331.55 555.005 331V325C555.005 325 558.725 320.2 560.745 317.61C561.255 316.95 560.785 316 559.955 316H546.045C545.215 316 544.745 316.95 545.255 317.61Z" fill="#4C4C4C" fill-opacity="0.7"/>
</g>
</g>
</g>
</g>
<g style="mix-blend-mode:luminosity">
<g style="mix-blend-mode:luminosity">
<rect x="308" y="351" width="103" height="24" rx="4" stroke="#E3E3E3" stroke-opacity="0.7" stroke-linejoin="bevel"/>
<g style="mix-blend-mode:luminosity">
<rect x="310" y="355" width="55" height="16" rx="2" fill="#E3E3E3"/>
<rect x="314" y="357" width="47" height="12" rx="6" fill="#A9AFB8" fill-opacity="0.7"/>
</g>
<rect x="369" y="357" width="18" height="12" rx="6" fill="#A9AFB8" fill-opacity="0.7"/>
<g style="mix-blend-mode:luminosity" clip-path="url(#clip11_6_6543)">
<path d="M391 354H409V372H391V354Z" fill="#D5D8DC"/>
<path d="M405.25 358.807L404.193 357.75L400 361.943L395.807 357.75L394.75 358.807L398.943 363L394.75 367.193L395.807 368.25L400 364.057L404.193 368.25L405.25 367.193L401.057 363L405.25 358.807Z" fill="#4C4C4C" fill-opacity="0.7"/>
</g>
</g>
<g style="mix-blend-mode:luminosity">
<g style="mix-blend-mode:luminosity">
<rect x="421" y="357" width="44" height="12" rx="6" fill="#A9AFB8" fill-opacity="0.7"/>
</g>
<g style="mix-blend-mode:luminosity" clip-path="url(#clip12_6_6543)">
<path d="M469 354H487V372H469V354Z" fill="#D5D8DC"/>
<path d="M483.25 358.807L482.193 357.75L478 361.943L473.807 357.75L472.75 358.807L476.943 363L472.75 367.193L473.807 368.25L478 364.057L482.193 368.25L483.25 367.193L479.057 363L483.25 358.807Z" fill="#4C4C4C" fill-opacity="0.7"/>
</g>
</g>
</g>
</g>
<g style="mix-blend-mode:luminosity">
<g style="mix-blend-mode:luminosity">
<path d="M589 309C589 306.791 590.791 305 593 305H812C814.209 305 816 306.791 816 309V339C816 341.209 814.209 343 812 343H593C590.791 343 589 341.209 589 339V309Z" fill="#E3E3E3"/>
<path d="M593 305.5H812C813.933 305.5 815.5 307.067 815.5 309V339C815.5 340.933 813.933 342.5 812 342.5H593C591.067 342.5 589.5 340.933 589.5 339V309L589.505 308.82C589.598 306.971 591.127 305.5 593 305.5Z" stroke="#E3E3E3" stroke-opacity="0.7"/>
<g style="mix-blend-mode:luminosity">
<g style="mix-blend-mode:luminosity">
<g style="mix-blend-mode:luminosity">
<g style="mix-blend-mode:luminosity">
<rect x="601" y="315" width="48" height="16" rx="8" fill="#A9AFB8" fill-opacity="0.7"/>
</g>
</g>
</g>
</g>
<circle cx="796" cy="324" r="8" fill="#A8A8A8" fill-opacity="0.7"/>
</g>
</g>
</g>
<g style="mix-blend-mode:luminosity">
<g style="mix-blend-mode:luminosity">
<path d="M1410 309C1410 306.791 1411.79 305 1414 305H1633C1635.21 305 1637 306.791 1637 309V339C1637 341.209 1635.21 343 1633 343H1414C1411.79 343 1410 341.209 1410 339V309Z" fill="#E3E3E3"/>
<path d="M1414 305.5H1633C1634.93 305.5 1636.5 307.067 1636.5 309V339C1636.5 340.933 1634.93 342.5 1633 342.5H1414C1412.07 342.5 1410.5 340.933 1410.5 339V309L1410.5 308.82C1410.6 306.971 1412.13 305.5 1414 305.5Z" stroke="#E3E3E3" stroke-opacity="0.7"/>
<g style="mix-blend-mode:luminosity">
<g style="mix-blend-mode:luminosity">
<g style="mix-blend-mode:luminosity">
<g style="mix-blend-mode:luminosity">
<rect x="1422" y="315" width="67" height="16" rx="8" fill="#A9AFB8" fill-opacity="0.7"/>
</g>
</g>
</g>
</g>
<circle cx="1616.25" cy="324" r="8.745" fill="#A8A8A8" fill-opacity="0.7"/>
</g>
</g>
</g>
<g style="mix-blend-mode:luminosity">
<mask id="path-116-inside-5_6_6543" fill="white">
<path d="M292 383H1653V413H292V383Z"/>
</mask>
<path d="M292 383H1653V413H292V383Z" fill="#F9F9F9"/>
<path d="M1653 413V412H292V413V414H1653V413Z" fill="#E9E9E9" mask="url(#path-116-inside-5_6_6543)"/>
<rect x="308" y="391" width="64" height="14" rx="7" fill="#A9AFB8" fill-opacity="0.7"/>
<rect x="1399" y="391" width="238" height="14" rx="7" fill="#A9AFB8" fill-opacity="0.7"/>
</g>
<g style="mix-blend-mode:luminosity">
<g style="mix-blend-mode:luminosity">
<g style="mix-blend-mode:luminosity">
<rect width="565.25" height="38" transform="translate(292 413)" fill="#F9F9F9"/>
<g style="mix-blend-mode:luminosity">
<g style="mix-blend-mode:luminosity">
<rect x="312" y="424" width="16" height="16" rx="2" fill="#D7D7D7"/>
</g>
<g style="mix-blend-mode:luminosity">
<rect x="336" y="425" width="83" height="14" rx="7" fill="#A9AFB8" fill-opacity="0.7"/>
</g>
</g>
</g>
<g style="mix-blend-mode:luminosity">
<rect width="565.25" height="38" transform="translate(857.25 413)" fill="#F9F9F9"/>
<g style="mix-blend-mode:luminosity">
<g style="mix-blend-mode:luminosity">
<rect x="877.25" y="425" width="90" height="14" rx="7" fill="#A9AFB8" fill-opacity="0.7"/>
</g>
</g>
</g>
<g style="mix-blend-mode:luminosity">
<rect width="115.25" height="38" transform="translate(1422.5 413)" fill="#F9F9F9"/>
<g style="mix-blend-mode:luminosity">
<g style="mix-blend-mode:luminosity">
<rect x="1442.5" y="425" width="28" height="14" rx="7" fill="#A9AFB8" fill-opacity="0.7"/>
</g>
</g>
</g>
<g style="mix-blend-mode:luminosity">
<rect width="115.25" height="38" transform="translate(1537.75 413)" fill="#F9F9F9"/>
<g style="mix-blend-mode:luminosity">
<g style="mix-blend-mode:luminosity">
<rect x="1557.75" y="425" width="20" height="14" rx="7" fill="#A9AFB8" fill-opacity="0.7"/>
</g>
</g>
</g>
</g>
<g style="mix-blend-mode:luminosity">
<g style="mix-blend-mode:luminosity">
<g style="mix-blend-mode:luminosity">
<g style="mix-blend-mode:luminosity">
<path d="M351 460H342C340.9 460 340 460.9 340 462V478C340 479.1 340.9 480 342 480H354C355.1 480 356 479.1 356 478V465L351 460ZM342 478V462H350V466H354V478H342ZM352 468V473C352 475.21 350.21 477 348 477C345.79 477 344 475.21 344 473V466.5C344 465.03 345.26 463.86 346.76 464.01C348.06 464.14 349 465.33 349 466.64V473H347V466.5C347 466.22 346.78 466 346.5 466C346.22 466 346 466.22 346 466.5V473C346 474.1 346.9 475 348 475C349.1 475 350 474.1 350 473V468H352Z" fill="#B7B7B7" fill-opacity="0.7"/>
</g>
<rect x="364" y="463" width="85" height="14" rx="7" fill="#A9AFB8" fill-opacity="0.7"/>
</g>
</g>
<g style="mix-blend-mode:luminosity">
<g style="mix-blend-mode:luminosity">
<rect x="877.25" y="463" width="62" height="14" rx="7" fill="#A9AFB8" fill-opacity="0.7"/>
</g>
</g>
<g style="mix-blend-mode:luminosity">
<g style="mix-blend-mode:luminosity">
<rect x="1442.5" y="463" width="20" height="14" rx="7" fill="#A9AFB8" fill-opacity="0.7"/>
</g>
</g>
<g style="mix-blend-mode:luminosity">
<g style="mix-blend-mode:luminosity">
<g style="mix-blend-mode:luminosity" clip-path="url(#clip13_6_6543)">
<g style="mix-blend-mode:luminosity">
<path d="M1575 470C1575 466.686 1572.31 464 1569 464C1565.69 464 1563 466.686 1563 470C1563 473.314 1565.69 476 1569 476C1572.31 476 1575 473.314 1575 470ZM1578 470C1578 474.971 1573.97 479 1569 479C1564.03 479 1560 474.971 1560 470C1560 465.029 1564.03 461 1569 461C1573.97 461 1578 465.029 1578 470Z" fill="#D5D8DC"/>
<path d="M1563 470C1563 468.409 1563.63 466.883 1564.76 465.757C1565.88 464.632 1567.41 464 1569 464V461C1564.03 461 1560 465.029 1560 470H1563ZM1564.5 473.968C1563.53 472.874 1563 471.462 1563 470H1560C1560 472.281 1560.85 474.368 1562.25 475.953L1564.5 473.968Z" fill="#D5D8DC"/>
</g>
</g>
<rect x="1585" y="463" width="20" height="14" rx="7" fill="#A9AFB8" fill-opacity="0.7"/>
<g style="mix-blend-mode:luminosity">
<path d="M1628 464.41L1626.59 463L1621 468.59L1615.41 463L1614 464.41L1619.59 470L1614 475.59L1615.41 477L1621 471.41L1626.59 477L1628 475.59L1622.41 470L1628 464.41Z" fill="#5C5C5C" fill-opacity="0.7"/>
</g>
</g>
</g>
</g>
<g style="mix-blend-mode:luminosity">
<g style="mix-blend-mode:luminosity">
<g style="mix-blend-mode:luminosity">
<rect x="312" y="500" width="16" height="16" rx="2" fill="#D7D7D7"/>
</g>
<g style="mix-blend-mode:luminosity">
<g style="mix-blend-mode:luminosity">
<path d="M351 498H342C340.9 498 340 498.9 340 500V516C340 517.1 340.9 518 342 518H354C355.1 518 356 517.1 356 516V503L351 498ZM342 516V500H350V504H354V516H342ZM352 506V511C352 513.21 350.21 515 348 515C345.79 515 344 513.21 344 511V504.5C344 503.03 345.26 501.86 346.76 502.01C348.06 502.14 349 503.33 349 504.64V511H347V504.5C347 504.22 346.78 504 346.5 504C346.22 504 346 504.22 346 504.5V511C346 512.1 346.9 513 348 513C349.1 513 350 512.1 350 511V506H352Z" fill="#4C4C4C" fill-opacity="0.7"/>
</g>
<rect x="364" y="501" width="86" height="14" rx="7" fill="#A9AFB8" fill-opacity="0.7"/>
</g>
</g>
<g style="mix-blend-mode:luminosity">
<g style="mix-blend-mode:luminosity">
<rect x="877.25" y="501" width="219" height="14" rx="7" fill="#A9AFB8" fill-opacity="0.7"/>
</g>
</g>
<g style="mix-blend-mode:luminosity">
<g style="mix-blend-mode:luminosity">
<rect x="1442.5" y="501" width="39" height="14" rx="7" fill="#A9AFB8" fill-opacity="0.7"/>
</g>
</g>
<g style="mix-blend-mode:luminosity">
<g style="mix-blend-mode:luminosity">
<g style="mix-blend-mode:luminosity">
<path d="M1576 505.5H1572V499.5H1566V505.5H1562L1569 512.5L1576 505.5ZM1562 514.5V516.5H1576V514.5H1562Z" fill="#5C5C5C" fill-opacity="0.7"/>
</g>
<rect x="1585" y="501" width="20" height="14" rx="7" fill="#A9AFB8" fill-opacity="0.7"/>
<g style="mix-blend-mode:luminosity">
<path d="M1621 504C1622.1 504 1623 503.1 1623 502C1623 500.9 1622.1 500 1621 500C1619.9 500 1619 500.9 1619 502C1619 503.1 1619.9 504 1621 504ZM1621 506C1619.9 506 1619 506.9 1619 508C1619 509.1 1619.9 510 1621 510C1622.1 510 1623 509.1 1623 508C1623 506.9 1622.1 506 1621 506ZM1621 512C1619.9 512 1619 512.9 1619 514C1619 515.1 1619.9 516 1621 516C1622.1 516 1623 515.1 1623 514C1623 512.9 1622.1 512 1621 512Z" fill="#5C5C5C" fill-opacity="0.7"/>
</g>
</g>
</g>
</g>
<g style="mix-blend-mode:luminosity">
<g style="mix-blend-mode:luminosity">
<g style="mix-blend-mode:luminosity">
<rect x="312" y="538" width="16" height="16" rx="2" fill="#D7D7D7"/>
</g>
<g style="mix-blend-mode:luminosity">
<g style="mix-blend-mode:luminosity">
<path d="M351 536H342C340.9 536 340 536.9 340 538V554C340 555.1 340.9 556 342 556H354C355.1 556 356 555.1 356 554V541L351 536ZM342 554V538H350V542H354V554H342ZM352 544V549C352 551.21 350.21 553 348 553C345.79 553 344 551.21 344 549V542.5C344 541.03 345.26 539.86 346.76 540.01C348.06 540.14 349 541.33 349 542.64V549H347V542.5C347 542.22 346.78 542 346.5 542C346.22 542 346 542.22 346 542.5V549C346 550.1 346.9 551 348 551C349.1 551 350 550.1 350 549V544H352Z" fill="#4C4C4C" fill-opacity="0.7"/>
</g>
<rect x="364" y="539" width="69" height="14" rx="7" fill="#A9AFB8" fill-opacity="0.7"/>
</g>
</g>
<g style="mix-blend-mode:luminosity">
<g style="mix-blend-mode:luminosity">
<rect x="877.25" y="539" width="219" height="14" rx="7" fill="#A9AFB8" fill-opacity="0.7"/>
</g>
</g>
<g style="mix-blend-mode:luminosity">
<g style="mix-blend-mode:luminosity">
<rect x="1442.5" y="539" width="47" height="14" rx="7" fill="#A9AFB8" fill-opacity="0.7"/>
</g>
</g>
<g style="mix-blend-mode:luminosity">
<g style="mix-blend-mode:luminosity">
<g style="mix-blend-mode:luminosity">
<path d="M1576 543.5H1572V537.5H1566V543.5H1562L1569 550.5L1576 543.5ZM1562 552.5V554.5H1576V552.5H1562Z" fill="#5C5C5C" fill-opacity="0.7"/>
</g>
<rect x="1585" y="539" width="20" height="14" rx="7" fill="#A9AFB8" fill-opacity="0.7"/>
<g style="mix-blend-mode:luminosity">
<path d="M1621 542C1622.1 542 1623 541.1 1623 540C1623 538.9 1622.1 538 1621 538C1619.9 538 1619 538.9 1619 540C1619 541.1 1619.9 542 1621 542ZM1621 544C1619.9 544 1619 544.9 1619 546C1619 547.1 1619.9 548 1621 548C1622.1 548 1623 547.1 1623 546C1623 544.9 1622.1 544 1621 544ZM1621 550C1619.9 550 1619 550.9 1619 552C1619 553.1 1619.9 554 1621 554C1622.1 554 1623 553.1 1623 552C1623 550.9 1622.1 550 1621 550Z" fill="#5C5C5C" fill-opacity="0.7"/>
</g>
</g>
</g>
</g>
<g style="mix-blend-mode:luminosity">
<g style="mix-blend-mode:luminosity">
<g style="mix-blend-mode:luminosity">
<rect x="312" y="576" width="16" height="16" rx="2" fill="#D7D7D7"/>
</g>
<g style="mix-blend-mode:luminosity">
<g style="mix-blend-mode:luminosity">
<path d="M351 574H342C340.9 574 340 574.9 340 576V592C340 593.1 340.9 594 342 594H354C355.1 594 356 593.1 356 592V579L351 574ZM342 592V576H350V580H354V592H342ZM352 582V587C352 589.21 350.21 591 348 591C345.79 591 344 589.21 344 587V580.5C344 579.03 345.26 577.86 346.76 578.01C348.06 578.14 349 579.33 349 580.64V587H347V580.5C347 580.22 346.78 580 346.5 580C346.22 580 346 580.22 346 580.5V587C346 588.1 346.9 589 348 589C349.1 589 350 588.1 350 587V582H352Z" fill="#4C4C4C" fill-opacity="0.7"/>
</g>
<rect x="364" y="577" width="80" height="14" rx="7" fill="#A9AFB8" fill-opacity="0.7"/>
</g>
</g>
<g style="mix-blend-mode:luminosity">
<g style="mix-blend-mode:luminosity">
<rect x="877.25" y="577" width="210" height="14" rx="7" fill="#A9AFB8" fill-opacity="0.7"/>
</g>
</g>
<g style="mix-blend-mode:luminosity">
<g style="mix-blend-mode:luminosity">
<rect x="1442.5" y="577" width="39" height="14" rx="7" fill="#A9AFB8" fill-opacity="0.7"/>
</g>
</g>
<g style="mix-blend-mode:luminosity">
<g style="mix-blend-mode:luminosity">
<g style="mix-blend-mode:luminosity">
<path d="M1576 581.5H1572V575.5H1566V581.5H1562L1569 588.5L1576 581.5ZM1562 590.5V592.5H1576V590.5H1562Z" fill="#5C5C5C" fill-opacity="0.7"/>
</g>
<rect x="1585" y="577" width="20" height="14" rx="7" fill="#A9AFB8" fill-opacity="0.7"/>
<g style="mix-blend-mode:luminosity">
<path d="M1621 580C1622.1 580 1623 579.1 1623 578C1623 576.9 1622.1 576 1621 576C1619.9 576 1619 576.9 1619 578C1619 579.1 1619.9 580 1621 580ZM1621 582C1619.9 582 1619 582.9 1619 584C1619 585.1 1619.9 586 1621 586C1622.1 586 1623 585.1 1623 584C1623 582.9 1622.1 582 1621 582ZM1621 588C1619.9 588 1619 588.9 1619 590C1619 591.1 1619.9 592 1621 592C1622.1 592 1623 591.1 1623 590C1623 588.9 1622.1 588 1621 588Z" fill="#5C5C5C" fill-opacity="0.7"/>
</g>
</g>
</g>
</g>
</g>
<g style="mix-blend-mode:luminosity">
<g style="mix-blend-mode:luminosity">
<g style="mix-blend-mode:luminosity">
<g style="mix-blend-mode:luminosity">
<rect x="1496.5" y="622.5" width="43" height="37" rx="3.5" stroke="#5C5C5C" stroke-opacity="0.7"/>
<g style="mix-blend-mode:luminosity">
<path d="M1521.7 636.41L1520.29 635L1514.29 641L1520.29 647L1521.7 645.59L1517.12 641L1521.7 636.41Z" fill="#5C5C5C" fill-opacity="0.7"/>
</g>
</g>
</g>
<g style="mix-blend-mode:luminosity">
<rect x="1551" y="633" width="20" height="16" rx="8" fill="#A9AFB8" fill-opacity="0.7"/>
<g style="mix-blend-mode:luminosity">
<path d="M1578.41 637.295L1583 641.875L1587.59 637.295L1589 638.705L1583 644.705L1577 638.705L1578.41 637.295Z" fill="#4C4C4C" fill-opacity="0.7"/>
</g>
</g>
<g style="mix-blend-mode:luminosity">
<g style="mix-blend-mode:luminosity">
<rect x="1604" y="620" width="48" height="42" rx="5" stroke="black" stroke-opacity="0.7" stroke-width="2"/>
<g style="mix-blend-mode:luminosity">
<rect x="1606.5" y="622.5" width="43" height="37" rx="3.5" stroke="#5C5C5C" stroke-opacity="0.7"/>
<g style="mix-blend-mode:luminosity">
<path d="M1625.7 635L1624.29 636.41L1628.87 641L1624.29 645.59L1625.7 647L1631.7 641L1625.7 635Z" fill="#5C5C5C" fill-opacity="0.7"/>
</g>
</g>
</g>
</g>
</g>
</g>
</g>
</g>
<g style="mix-blend-mode:luminosity">
<g style="mix-blend-mode:luminosity">
<mask id="path-167-inside-6_6_6543" fill="white">
<path d="M324 885H1621V953H324V885Z"/>
</mask>
<path d="M324 885V886H1621V885V884H324V885Z" fill="#E9E9E9" fill-opacity="0.7" mask="url(#path-167-inside-6_6_6543)"/>
<g style="mix-blend-mode:luminosity">
<rect x="1210" y="901" width="411" height="14" rx="7" fill="#A9AFB8" fill-opacity="0.7"/>
</g>
<g style="mix-blend-mode:luminosity">
<g style="mix-blend-mode:luminosity">
<rect x="324" y="901" width="47" height="14" rx="7" fill="#A9AFB8" fill-opacity="0.7"/>
</g>
<rect x="377" y="901" width="9" height="14" rx="4.5" fill="#A9AFB8" fill-opacity="0.7"/>
<g style="mix-blend-mode:luminosity">
<rect x="392" y="901" width="82" height="14" rx="7" fill="#A9AFB8" fill-opacity="0.7"/>
</g>
<rect x="480" y="901" width="9" height="14" rx="4.5" fill="#A9AFB8" fill-opacity="0.7"/>
<g style="mix-blend-mode:luminosity">
<rect x="495" y="901" width="104" height="14" rx="7" fill="#A9AFB8" fill-opacity="0.7"/>
</g>
<rect x="605" y="901" width="9" height="14" rx="4.5" fill="#A9AFB8" fill-opacity="0.7"/>
<g style="mix-blend-mode:luminosity">
<rect x="620" y="901" width="62" height="14" rx="7" fill="#A9AFB8" fill-opacity="0.7"/>
</g>
<rect x="688" y="901" width="9" height="14" rx="4.5" fill="#A9AFB8" fill-opacity="0.7"/>
<g style="mix-blend-mode:luminosity">
<rect x="703" y="901" width="70" height="14" rx="7" fill="#A9AFB8" fill-opacity="0.7"/>
</g>
<rect x="779" y="901" width="9" height="14" rx="4.5" fill="#A9AFB8" fill-opacity="0.7"/>
<g style="mix-blend-mode:luminosity">
<rect x="794" y="901" width="113" height="14" rx="7" fill="#A9AFB8" fill-opacity="0.7"/>
</g>
<rect x="913" y="901" width="9" height="14" rx="4.5" fill="#A9AFB8" fill-opacity="0.7"/>
<g style="mix-blend-mode:luminosity">
<rect x="928" y="901" width="143" height="14" rx="7" fill="#A9AFB8" fill-opacity="0.7"/>
</g>
</g>
</g>
</g>
</g>
</g>
</g>
<rect x="256" y="52" width="1421" height="39" rx="14" stroke="#0A249F" stroke-width="4"/>
</g>
</g>
<defs>
<filter id="filter0_d_6_6543" x="0" y="0" width="1689" height="993" filterUnits="userSpaceOnUse" color-interpolation-filters="sRGB">
<feFlood flood-opacity="0" result="BackgroundImageFix"/>
<feColorMatrix in="SourceAlpha" type="matrix" values="0 0 0 0 0 0 0 0 0 0 0 0 0 0 0 0 0 0 127 0" result="hardAlpha"/>
<feOffset dy="4"/>
<feGaussianBlur stdDeviation="2"/>
<feComposite in2="hardAlpha" operator="out"/>
<feColorMatrix type="matrix" values="0 0 0 0 0 0 0 0 0 0 0 0 0 0 0 0 0 0 0.25 0"/>
<feBlend mode="normal" in2="BackgroundImageFix" result="effect1_dropShadow_6_6543"/>
<feBlend mode="normal" in="SourceGraphic" in2="effect1_dropShadow_6_6543" result="shape"/>
</filter>
<clipPath id="clip0_6_6543">
<rect x="4" width="1681" height="985" rx="20" fill="white"/>
</clipPath>
<clipPath id="clip1_6_6543">
<rect width="24" height="24" fill="white" transform="translate(276 60)"/>
</clipPath>
<clipPath id="clip2_6_6543">
<rect width="24" height="24" fill="white" transform="translate(425 60)"/>
</clipPath>
<clipPath id="clip3_6_6543">
<rect width="24" height="24" fill="white" transform="translate(495 60)"/>
</clipPath>
<clipPath id="clip4_6_6543">
<rect width="24" height="24" fill="white" transform="translate(690 60)"/>
</clipPath>
<clipPath id="clip5_6_6543">
<rect width="24" height="24" fill="white" transform="translate(839 60)"/>
</clipPath>
<clipPath id="clip6_6_6543">
<rect width="24" height="24" fill="white" transform="translate(909 60)"/>
</clipPath>
<clipPath id="clip7_6_6543">
<rect width="18" height="18" fill="white" transform="translate(292 116)"/>
</clipPath>
<clipPath id="clip8_6_6543">
<rect width="18" height="18" fill="white" transform="translate(390 116)"/>
</clipPath>
<clipPath id="clip9_6_6543">
<rect width="18" height="18" fill="white" transform="translate(521 116)"/>
</clipPath>
<clipPath id="clip10_6_6543">
<rect width="18" height="18" fill="white" transform="translate(644 116)"/>
</clipPath>
<clipPath id="clip11_6_6543">
<rect width="18" height="18" fill="white" transform="translate(391 354)"/>
</clipPath>
<clipPath id="clip12_6_6543">
<rect width="18" height="18" fill="white" transform="translate(469 354)"/>
</clipPath>
<clipPath id="clip13_6_6543">
<rect width="24" height="24" fill="white" transform="translate(1557 458)"/>
</clipPath>
</defs>
</svg>
