<svg width="1683" height="613" viewBox="0 0 1683 613" fill="none" xmlns="http://www.w3.org/2000/svg">
<g filter="url(#filter0_d_22_14777)">
<g clip-path="url(#clip0_22_14777)">
<rect x="853" width="826" height="605" rx="20" fill="#1C2033"/>
<g style="mix-blend-mode:luminosity">
<rect width="826" height="934" transform="translate(853)" fill="#F5F6F7"/>
<g style="mix-blend-mode:luminosity">
<g style="mix-blend-mode:luminosity">
<g style="mix-blend-mode:luminosity">
<g style="mix-blend-mode:luminosity" clip-path="url(#clip1_22_14777)">
<path d="M889 68H907V86H889V68Z" fill="#D5D8DC"/>
</g>
<g style="mix-blend-mode:luminosity">
<path d="M911 72.5C911 71.3954 911.895 70.5 913 70.5H1011C1012.1 70.5 1013 71.3954 1013 72.5V81.5C1013 82.6046 1012.1 83.5 1011 83.5H913C911.895 83.5 911 82.6046 911 81.5V72.5Z" fill="#E3E3E3"/>
<rect x="915" y="70.5" width="94" height="13" rx="6.5" fill="#A9AFB8" fill-opacity="0.7"/>
</g>
</g>
</g>
<rect x="885" y="102" width="216" height="24" rx="8" fill="#A9AFB8" fill-opacity="0.7"/>
<rect x="885" y="138" width="1131" height="13" rx="6.5" fill="#A9AFB8" fill-opacity="0.7"/>
</g>
<g style="mix-blend-mode:luminosity">
<g style="mix-blend-mode:luminosity">
<g style="mix-blend-mode:luminosity">
<rect width="763" height="54" transform="translate(885 181)" fill="#E1E2EA"/>
<g style="mix-blend-mode:luminosity">
<rect x="1413" y="189" width="219" height="38" rx="4" fill="#D7D7D7"/>
<circle cx="1435" cy="208" r="12" fill="#A8A8A8" fill-opacity="0.7"/>
<rect x="1455" y="200" width="167" height="16" rx="8" fill="#A9AFB8" fill-opacity="0.7"/>
</g>
</g>
</g>
<g style="mix-blend-mode:luminosity">
<rect width="763" height="48" transform="translate(885 235)" fill="#E1E2EA"/>
<g style="mix-blend-mode:luminosity">
<g style="mix-blend-mode:luminosity">
<g style="mix-blend-mode:luminosity">
<g style="mix-blend-mode:luminosity">
<g style="mix-blend-mode:luminosity">
<g style="mix-blend-mode:luminosity">
<path d="M901 243C901 240.791 902.791 239 905 239H1070V279H905C902.791 279 901 277.209 901 275V243Z" fill="white"/>
<path d="M905 239.5H1069.5V278.5H905C903.067 278.5 901.5 276.933 901.5 275V243C901.5 241.067 903.067 239.5 905 239.5Z" stroke="#E3E3E3" stroke-opacity="0.7"/>
<g style="mix-blend-mode:luminosity">
<g style="mix-blend-mode:luminosity">
<g style="mix-blend-mode:luminosity">
<rect x="913" y="247" width="84" height="12" rx="6" fill="#A9AFB8" fill-opacity="0.7"/>
</g>
<rect x="913" y="255" width="65" height="16" rx="8" fill="#A9AFB8" fill-opacity="0.7"/>
</g>
</g>
<circle cx="1046" cy="259" r="12" fill="#A8A8A8" fill-opacity="0.7"/>
</g>
</g>
<g style="mix-blend-mode:luminosity">
<g style="mix-blend-mode:luminosity">
<path d="M1070 239H1235C1237.21 239 1239 240.791 1239 243V275C1239 277.209 1237.21 279 1235 279H1070V239Z" fill="#F0F0F5"/>
<path d="M1235 239.5C1236.93 239.5 1238.5 241.067 1238.5 243V275C1238.5 276.933 1236.93 278.5 1235 278.5H1070.5V239.5H1235Z" stroke="#E3E3E3" stroke-opacity="0.7"/>
<g style="mix-blend-mode:luminosity">
<g style="mix-blend-mode:luminosity">
<rect x="1082" y="251" width="57" height="16" rx="8" fill="#A9AFB8" fill-opacity="0.7"/>
</g>
</g>
<circle cx="1215" cy="259" r="12" fill="#A8A8A8" fill-opacity="0.7"/>
</g>
</g>
</g>
</g>
</g>
<g style="mix-blend-mode:luminosity">
<g style="mix-blend-mode:luminosity">
<g style="mix-blend-mode:luminosity">
<path d="M1247 243C1247 240.791 1248.79 239 1251 239H1362V279H1251C1248.79 279 1247 277.209 1247 275V243Z" fill="white"/>
<path d="M1251 239.5H1361.5V278.5H1251C1249.07 278.5 1247.5 276.933 1247.5 275V243C1247.5 241.067 1249.07 239.5 1251 239.5Z" stroke="#E3E3E3" stroke-opacity="0.7"/>
<g style="mix-blend-mode:luminosity">
<g style="mix-blend-mode:luminosity">
<g style="mix-blend-mode:luminosity">
<rect x="1259" y="251" width="51" height="16" rx="8" fill="#A9AFB8" fill-opacity="0.7"/>
</g>
</g>
</g>
<circle cx="1338" cy="259" r="12" fill="#A8A8A8" fill-opacity="0.7"/>
</g>
</g>
<g style="mix-blend-mode:luminosity">
<path d="M1362 239H1402C1404.21 239 1406 240.791 1406 243V275C1406 277.209 1404.21 279 1402 279H1362V239Z" fill="black" fill-opacity="0.2"/>
</g>
</g>
</g>
</g>
<g style="mix-blend-mode:luminosity">
<mask id="path-26-inside-1_22_14777" fill="white">
<path d="M885 283H1648V319H885V283Z"/>
</mask>
<path d="M885 283H1648V319H885V283Z" fill="#E1E2EA"/>
<path d="M1648 319V318H885V319V320H1648V319Z" fill="#E9E9E9" mask="url(#path-26-inside-1_22_14777)"/>
<rect x="901" y="291" width="201" height="14" rx="7" fill="#A9AFB8" fill-opacity="0.7"/>
<rect x="1394" y="291" width="238" height="14" rx="7" fill="#A9AFB8" fill-opacity="0.7"/>
</g>
</g>
<g style="mix-blend-mode:luminosity">
<mask id="path-30-inside-2_22_14777" fill="white">
<path d="M853 0H1681V52H853V0Z"/>
</mask>
<path d="M853 0H1681V52H853V0Z" fill="#7F7F7F"/>
<path d="M1681 52V51H853V52V53H1681V52Z" fill="#D9D9D9" mask="url(#path-30-inside-2_22_14777)"/>
<g style="mix-blend-mode:luminosity">
<rect x="882" y="16" width="65" height="20" rx="8" fill="#A9AFB8" fill-opacity="0.7"/>
</g>
<g style="mix-blend-mode:luminosity">
<g style="mix-blend-mode:luminosity">
<g style="mix-blend-mode:luminosity">
<rect x="1261.5" y="8.5" width="399" height="35" rx="17.5" stroke="#D9D9D9" stroke-opacity="0.7"/>
<rect x="1277" y="18" width="96" height="16" rx="8" fill="#A9AFB8" fill-opacity="0.7"/>
</g>
</g>
</g>
</g>
<g style="mix-blend-mode:luminosity">
<g style="mix-blend-mode:luminosity">
<g style="mix-blend-mode:luminosity">
<rect width="723" height="48" transform="translate(885 319)" fill="#E1E2EA"/>
<g style="mix-blend-mode:luminosity">
<rect x="897" y="336" width="34" height="14" rx="7" fill="#A9AFB8" fill-opacity="0.7"/>
</g>
</g>
<g style="mix-blend-mode:luminosity">
<mask id="path-37-inside-3_22_14777" fill="white">
<path d="M885 367H1608V434.429H885V367Z"/>
</mask>
<path d="M885 367H1608V434.429H885V367Z" fill="white"/>
<path d="M1608 434.429V433.429H885V434.429V435.429H1608V434.429Z" fill="#D1D3E0" mask="url(#path-37-inside-3_22_14777)"/>
<g style="mix-blend-mode:luminosity">
<rect x="897" y="379" width="270" height="14" rx="7" fill="#A9AFB8" fill-opacity="0.7"/>
</g>
</g>
<g style="mix-blend-mode:luminosity">
<mask id="path-40-inside-4_22_14777" fill="white">
<path d="M885 434.429H1608V501.857H885V434.429Z"/>
</mask>
<path d="M885 434.429H1608V501.857H885V434.429Z" fill="white"/>
<path d="M1608 501.857V500.857H885V501.857V502.857H1608V501.857Z" fill="#D1D3E0" mask="url(#path-40-inside-4_22_14777)"/>
<g style="mix-blend-mode:luminosity">
<rect x="897" y="446.429" width="275" height="14" rx="7" fill="#A9AFB8" fill-opacity="0.7"/>
</g>
</g>
<g style="mix-blend-mode:luminosity">
<mask id="path-43-inside-5_22_14777" fill="white">
<path d="M885 501.857H1608V569.286H885V501.857Z"/>
</mask>
<path d="M885 501.857H1608V569.286H885V501.857Z" fill="white"/>
<path d="M1608 569.286V568.286H885V569.286V570.286H1608V569.286Z" fill="#D1D3E0" mask="url(#path-43-inside-5_22_14777)"/>
<g style="mix-blend-mode:luminosity">
<rect x="897" y="513.857" width="279" height="14" rx="7" fill="#A9AFB8" fill-opacity="0.7"/>
</g>
</g>
<g style="mix-blend-mode:luminosity">
<mask id="path-46-inside-6_22_14777" fill="white">
<path d="M885 569.286H1608V636.714H885V569.286Z"/>
</mask>
<path d="M885 569.286H1608V636.714H885V569.286Z" fill="white"/>
<path d="M1608 636.714V635.714H885V636.714V637.714H1608V636.714Z" fill="#D1D3E0" mask="url(#path-46-inside-6_22_14777)"/>
<g style="mix-blend-mode:luminosity">
<rect x="897" y="581.286" width="272" height="14" rx="7" fill="#A9AFB8" fill-opacity="0.7"/>
</g>
</g>
</g>
<g style="mix-blend-mode:luminosity">
<g style="mix-blend-mode:luminosity">
<rect width="40" height="48" transform="translate(1608 319)" fill="#E1E2EA"/>
</g>
<g style="mix-blend-mode:luminosity">
<mask id="path-49-inside-7_22_14777" fill="white">
<path d="M1608 367H1648V434.429H1608V367Z"/>
</mask>
<path d="M1608 367H1648V434.429H1608V367Z" fill="white"/>
<path d="M1648 434.429V433.429H1608V434.429V435.429H1648V434.429Z" fill="#D1D3E0" mask="url(#path-49-inside-7_22_14777)"/>
<g style="mix-blend-mode:luminosity">
<g style="mix-blend-mode:luminosity">
<path d="M1628 384.333C1628.73 384.333 1629.33 383.733 1629.33 383C1629.33 382.267 1628.73 381.667 1628 381.667C1627.27 381.667 1626.67 382.267 1626.67 383C1626.67 383.733 1627.27 384.333 1628 384.333ZM1628 385.667C1627.27 385.667 1626.67 386.267 1626.67 387C1626.67 387.733 1627.27 388.333 1628 388.333C1628.73 388.333 1629.33 387.733 1629.33 387C1629.33 386.267 1628.73 385.667 1628 385.667ZM1628 389.667C1627.27 389.667 1626.67 390.267 1626.67 391C1626.67 391.733 1627.27 392.333 1628 392.333C1628.73 392.333 1629.33 391.733 1629.33 391C1629.33 390.267 1628.73 389.667 1628 389.667Z" fill="#4E4E4E" fill-opacity="0.7"/>
</g>
</g>
</g>
<g style="mix-blend-mode:luminosity">
<mask id="path-52-inside-8_22_14777" fill="white">
<path d="M1608 434.429H1648V501.857H1608V434.429Z"/>
</mask>
<path d="M1608 434.429H1648V501.857H1608V434.429Z" fill="white"/>
<path d="M1648 501.857V500.857H1608V501.857V502.857H1648V501.857Z" fill="#D1D3E0" mask="url(#path-52-inside-8_22_14777)"/>
<g style="mix-blend-mode:luminosity">
<g style="mix-blend-mode:luminosity">
<path d="M1628 451.762C1628.73 451.762 1629.33 451.162 1629.33 450.429C1629.33 449.695 1628.73 449.095 1628 449.095C1627.27 449.095 1626.67 449.695 1626.67 450.429C1626.67 451.162 1627.27 451.762 1628 451.762ZM1628 453.095C1627.27 453.095 1626.67 453.695 1626.67 454.429C1626.67 455.162 1627.27 455.762 1628 455.762C1628.73 455.762 1629.33 455.162 1629.33 454.429C1629.33 453.695 1628.73 453.095 1628 453.095ZM1628 457.095C1627.27 457.095 1626.67 457.695 1626.67 458.429C1626.67 459.162 1627.27 459.762 1628 459.762C1628.73 459.762 1629.33 459.162 1629.33 458.429C1629.33 457.695 1628.73 457.095 1628 457.095Z" fill="#4E4E4E" fill-opacity="0.7"/>
</g>
</g>
</g>
<g style="mix-blend-mode:luminosity">
<mask id="path-55-inside-9_22_14777" fill="white">
<path d="M1608 501.857H1648V569.286H1608V501.857Z"/>
</mask>
<path d="M1608 501.857H1648V569.286H1608V501.857Z" fill="white"/>
<path d="M1648 569.286V568.286H1608V569.286V570.286H1648V569.286Z" fill="#D1D3E0" mask="url(#path-55-inside-9_22_14777)"/>
<g style="mix-blend-mode:luminosity">
<g style="mix-blend-mode:luminosity">
<path d="M1628 519.19C1628.73 519.19 1629.33 518.59 1629.33 517.857C1629.33 517.124 1628.73 516.524 1628 516.524C1627.27 516.524 1626.67 517.124 1626.67 517.857C1626.67 518.59 1627.27 519.19 1628 519.19ZM1628 520.524C1627.27 520.524 1626.67 521.124 1626.67 521.857C1626.67 522.59 1627.27 523.19 1628 523.19C1628.73 523.19 1629.33 522.59 1629.33 521.857C1629.33 521.124 1628.73 520.524 1628 520.524ZM1628 524.524C1627.27 524.524 1626.67 525.124 1626.67 525.857C1626.67 526.59 1627.27 527.19 1628 527.19C1628.73 527.19 1629.33 526.59 1629.33 525.857C1629.33 525.124 1628.73 524.524 1628 524.524Z" fill="#4E4E4E" fill-opacity="0.7"/>
</g>
</g>
</g>
<g style="mix-blend-mode:luminosity">
<mask id="path-58-inside-10_22_14777" fill="white">
<path d="M1608 569.286H1648V636.714H1608V569.286Z"/>
</mask>
<path d="M1608 569.286H1648V636.714H1608V569.286Z" fill="white"/>
<path d="M1648 636.714V635.714H1608V636.714V637.714H1648V636.714Z" fill="#D1D3E0" mask="url(#path-58-inside-10_22_14777)"/>
<g style="mix-blend-mode:luminosity">
<g style="mix-blend-mode:luminosity">
<path d="M1628 586.619C1628.73 586.619 1629.33 586.019 1629.33 585.286C1629.33 584.552 1628.73 583.952 1628 583.952C1627.27 583.952 1626.67 584.552 1626.67 585.286C1626.67 586.019 1627.27 586.619 1628 586.619ZM1628 587.952C1627.27 587.952 1626.67 588.552 1626.67 589.286C1626.67 590.019 1627.27 590.619 1628 590.619C1628.73 590.619 1629.33 590.019 1629.33 589.286C1629.33 588.552 1628.73 587.952 1628 587.952ZM1628 591.952C1627.27 591.952 1626.67 592.552 1626.67 593.286C1626.67 594.019 1627.27 594.619 1628 594.619C1628.73 594.619 1629.33 594.019 1629.33 593.286C1629.33 592.552 1628.73 591.952 1628 591.952Z" fill="#4E4E4E" fill-opacity="0.7"/>
</g>
</g>
</g>
</g>
</g>
<g style="mix-blend-mode:luminosity">
<g opacity="0.3" style="mix-blend-mode:luminosity">
<rect x="853" y="50" width="826" height="816" fill="black"/>
</g>
</g>
<g style="mix-blend-mode:luminosity" filter="url(#filter1_d_22_14777)">
<path d="M939 164C939 161.791 940.791 160 943 160H1575C1577.21 160 1579 161.791 1579 164V446C1579 448.209 1577.21 450 1575 450H943C940.791 450 939 448.209 939 446V164Z" fill="#FAFAFA" shape-rendering="crispEdges"/>
<g style="mix-blend-mode:luminosity">
<g style="mix-blend-mode:luminosity">
<mask id="path-64-inside-11_22_14777" fill="white">
<path d="M971 160H1547V220H971V160Z"/>
</mask>
<path d="M1547 220V219H971V220V221H1547V220Z" fill="#F4F4F4" mask="url(#path-64-inside-11_22_14777)"/>
<rect x="971" y="180" width="278" height="20" rx="8" fill="#A9AFB8" fill-opacity="0.7"/>
<g style="mix-blend-mode:luminosity" clip-path="url(#clip2_22_14777)">
<path d="M1539.5 181.615L1537.39 179.5L1529 187.885L1520.61 179.5L1518.5 181.615L1526.89 190L1518.5 198.385L1520.61 200.5L1529 192.115L1537.39 200.5L1539.5 198.385L1531.11 190L1539.5 181.615Z" fill="#404040" fill-opacity="0.7"/>
</g>
</g>
</g>
<g style="mix-blend-mode:luminosity">
<rect x="971" y="230" width="576" height="16" rx="8" fill="#A9AFB8" fill-opacity="0.7"/>
<g style="mix-blend-mode:luminosity">
<g style="mix-blend-mode:luminosity">
<path d="M971 260C971 257.791 972.791 256 975 256H1543C1545.21 256 1547 257.791 1547 260V329C1547 331.209 1545.21 333 1543 333H975C972.791 333 971 331.209 971 329V260Z" fill="#E3E3E3"/>
<path d="M975 256.5H1543C1544.93 256.5 1546.5 258.067 1546.5 260V329C1546.5 330.933 1544.93 332.5 1543 332.5H975C973.067 332.5 971.5 330.933 971.5 329V260C971.5 258.067 973.067 256.5 975 256.5Z" stroke="#E3E3E3" stroke-opacity="0.7"/>
<g style="mix-blend-mode:luminosity">
<g style="mix-blend-mode:luminosity">
<g style="mix-blend-mode:luminosity">
<rect x="983" y="268" width="224" height="12" rx="6" fill="#A9AFB8" fill-opacity="0.7"/>
</g>
</g>
</g>
</g>
<rect x="971" y="346" width="294" height="12" rx="6" fill="#A9AFB8" fill-opacity="0.7"/>
</g>
<g style="mix-blend-mode:luminosity">
<mask id="path-73-inside-12_22_14777" fill="white">
<path d="M971 368H1547V438H971V368Z"/>
</mask>
<path d="M971 368V369H1547V368V367H971V368Z" fill="#D4D4D4" fill-opacity="0.7" mask="url(#path-73-inside-12_22_14777)"/>
<g style="mix-blend-mode:luminosity" clip-path="url(#clip3_22_14777)">
<g style="mix-blend-mode:luminosity">
<rect x="1397" y="384" width="70" height="38" rx="4" fill="#FF0000"/>
<rect x="1407" y="395" width="50" height="16" rx="8" fill="#A9AFB8" fill-opacity="0.7"/>
</g>
<g style="mix-blend-mode:luminosity">
<rect x="1475" y="384" width="72" height="38" rx="4" fill="#D7D7D7"/>
<rect x="1485" y="395" width="52" height="16" rx="8" fill="#A9AFB8" fill-opacity="0.7"/>
</g>
</g>
</g>
</g>
</g>
</g>
<g filter="url(#filter2_d_22_14777)">
<rect x="1562" y="38" width="79" height="77" fill="white"/>
<path d="M1625.21 19H1577.04L1543 53.0354V101.215L1577.04 135.25H1625.21L1659.25 101.215V53.0354L1625.21 19ZM1633.42 101.279L1625.28 109.417L1601.12 85.2625L1576.97 109.417L1568.83 101.279L1592.99 77.125L1568.83 52.9708L1576.97 44.8333L1601.12 68.9875L1625.28 44.8333L1633.42 52.9708L1609.26 77.125L1633.42 101.279Z" fill="#C70000"/>
</g>
</g>
</g>
<g filter="url(#filter3_d_22_14777)">
<g clip-path="url(#clip4_22_14777)">
<rect x="4" width="826" height="605" rx="20" fill="#1C2033"/>
<g style="mix-blend-mode:luminosity">
<rect width="826" height="934" transform="translate(4)" fill="#F5F6F7"/>
<g style="mix-blend-mode:luminosity">
<g style="mix-blend-mode:luminosity">
<g style="mix-blend-mode:luminosity">
<g style="mix-blend-mode:luminosity" clip-path="url(#clip5_22_14777)">
<path d="M40 68H58V86H40V68Z" fill="#D5D8DC"/>
</g>
<g style="mix-blend-mode:luminosity">
<path d="M62 72.5C62 71.3954 62.8954 70.5 64 70.5H162C163.105 70.5 164 71.3954 164 72.5V81.5C164 82.6046 163.105 83.5 162 83.5H64C62.8954 83.5 62 82.6046 62 81.5V72.5Z" fill="#E3E3E3"/>
<rect x="66" y="70.5" width="94" height="13" rx="6.5" fill="#A9AFB8" fill-opacity="0.7"/>
</g>
</g>
</g>
<rect x="36" y="102" width="216" height="24" rx="8" fill="#A9AFB8" fill-opacity="0.7"/>
<rect x="36" y="138" width="1131" height="13" rx="6.5" fill="#A9AFB8" fill-opacity="0.7"/>
</g>
<g style="mix-blend-mode:luminosity">
<g style="mix-blend-mode:luminosity">
<g style="mix-blend-mode:luminosity">
<rect width="763" height="54" transform="translate(36 181)" fill="#E1E2EA"/>
<g style="mix-blend-mode:luminosity">
<rect x="564" y="189" width="219" height="38" rx="4" fill="#D7D7D7"/>
<circle cx="586" cy="208" r="12" fill="#A8A8A8" fill-opacity="0.7"/>
<rect x="606" y="200" width="167" height="16" rx="8" fill="#A9AFB8" fill-opacity="0.7"/>
</g>
</g>
</g>
<g style="mix-blend-mode:luminosity">
<rect width="763" height="48" transform="translate(36 235)" fill="#E1E2EA"/>
<g style="mix-blend-mode:luminosity">
<g style="mix-blend-mode:luminosity">
<g style="mix-blend-mode:luminosity">
<g style="mix-blend-mode:luminosity">
<g style="mix-blend-mode:luminosity">
<g style="mix-blend-mode:luminosity">
<path d="M52 243C52 240.791 53.7909 239 56 239H221V279H56C53.7909 279 52 277.209 52 275V243Z" fill="white"/>
<path d="M56 239.5H220.5V278.5H56C54.067 278.5 52.5 276.933 52.5 275V243C52.5 241.067 54.067 239.5 56 239.5Z" stroke="#E3E3E3" stroke-opacity="0.7"/>
<g style="mix-blend-mode:luminosity">
<g style="mix-blend-mode:luminosity">
<g style="mix-blend-mode:luminosity">
<rect x="64" y="247" width="84" height="12" rx="6" fill="#A9AFB8" fill-opacity="0.7"/>
</g>
<rect x="64" y="255" width="65" height="16" rx="8" fill="#A9AFB8" fill-opacity="0.7"/>
</g>
</g>
<circle cx="197" cy="259" r="12" fill="#A8A8A8" fill-opacity="0.7"/>
</g>
</g>
<g style="mix-blend-mode:luminosity">
<g style="mix-blend-mode:luminosity">
<path d="M221 239H386C388.209 239 390 240.791 390 243V275C390 277.209 388.209 279 386 279H221V239Z" fill="#F0F0F5"/>
<path d="M386 239.5C387.933 239.5 389.5 241.067 389.5 243V275C389.5 276.933 387.933 278.5 386 278.5H221.5V239.5H386Z" stroke="#E3E3E3" stroke-opacity="0.7"/>
<g style="mix-blend-mode:luminosity">
<g style="mix-blend-mode:luminosity">
<rect x="233" y="251" width="57" height="16" rx="8" fill="#A9AFB8" fill-opacity="0.7"/>
</g>
</g>
<circle cx="366" cy="259" r="12" fill="#A8A8A8" fill-opacity="0.7"/>
</g>
</g>
</g>
</g>
</g>
<g style="mix-blend-mode:luminosity">
<g style="mix-blend-mode:luminosity">
<g style="mix-blend-mode:luminosity">
<path d="M398 243C398 240.791 399.791 239 402 239H513V279H402C399.791 279 398 277.209 398 275V243Z" fill="white"/>
<path d="M402 239.5H512.5V278.5H402C400.067 278.5 398.5 276.933 398.5 275V243C398.5 241.067 400.067 239.5 402 239.5Z" stroke="#E3E3E3" stroke-opacity="0.7"/>
<g style="mix-blend-mode:luminosity">
<g style="mix-blend-mode:luminosity">
<g style="mix-blend-mode:luminosity">
<rect x="410" y="251" width="51" height="16" rx="8" fill="#A9AFB8" fill-opacity="0.7"/>
</g>
</g>
</g>
<circle cx="489" cy="259" r="12" fill="#A8A8A8" fill-opacity="0.7"/>
</g>
</g>
<g style="mix-blend-mode:luminosity">
<path d="M513 239H553C555.209 239 557 240.791 557 243V275C557 277.209 555.209 279 553 279H513V239Z" fill="black" fill-opacity="0.2"/>
</g>
</g>
</g>
</g>
<g style="mix-blend-mode:luminosity">
<mask id="path-106-inside-13_22_14777" fill="white">
<path d="M36 283H799V319H36V283Z"/>
</mask>
<path d="M36 283H799V319H36V283Z" fill="#E1E2EA"/>
<path d="M799 319V318H36V319V320H799V319Z" fill="#E9E9E9" mask="url(#path-106-inside-13_22_14777)"/>
<rect x="52" y="291" width="201" height="14" rx="7" fill="#A9AFB8" fill-opacity="0.7"/>
<rect x="545" y="291" width="238" height="14" rx="7" fill="#A9AFB8" fill-opacity="0.7"/>
</g>
</g>
<g style="mix-blend-mode:luminosity">
<mask id="path-110-inside-14_22_14777" fill="white">
<path d="M4 0H832V52H4V0Z"/>
</mask>
<path d="M4 0H832V52H4V0Z" fill="#7F7F7F"/>
<path d="M832 52V51H4V52V53H832V52Z" fill="#D9D9D9" mask="url(#path-110-inside-14_22_14777)"/>
<g style="mix-blend-mode:luminosity">
<rect x="33" y="16" width="65" height="20" rx="8" fill="#A9AFB8" fill-opacity="0.7"/>
</g>
<g style="mix-blend-mode:luminosity">
<g style="mix-blend-mode:luminosity">
<g style="mix-blend-mode:luminosity">
<rect x="412.5" y="8.5" width="399" height="35" rx="17.5" stroke="#D9D9D9" stroke-opacity="0.7"/>
<rect x="428" y="18" width="96" height="16" rx="8" fill="#A9AFB8" fill-opacity="0.7"/>
</g>
</g>
</g>
</g>
<g style="mix-blend-mode:luminosity">
<g style="mix-blend-mode:luminosity">
<g style="mix-blend-mode:luminosity">
<rect width="723" height="48" transform="translate(36 319)" fill="#E1E2EA"/>
<g style="mix-blend-mode:luminosity">
<rect x="48" y="336" width="34" height="14" rx="7" fill="#A9AFB8" fill-opacity="0.7"/>
</g>
</g>
<g style="mix-blend-mode:luminosity">
<mask id="path-117-inside-15_22_14777" fill="white">
<path d="M36 367H759V434.429H36V367Z"/>
</mask>
<path d="M36 367H759V434.429H36V367Z" fill="white"/>
<path d="M759 434.429V433.429H36V434.429V435.429H759V434.429Z" fill="#D1D3E0" mask="url(#path-117-inside-15_22_14777)"/>
<g style="mix-blend-mode:luminosity">
<rect x="48" y="379" width="270" height="14" rx="7" fill="#A9AFB8" fill-opacity="0.7"/>
</g>
</g>
<g style="mix-blend-mode:luminosity">
<mask id="path-120-inside-16_22_14777" fill="white">
<path d="M36 434.429H759V501.857H36V434.429Z"/>
</mask>
<path d="M36 434.429H759V501.857H36V434.429Z" fill="white"/>
<path d="M759 501.857V500.857H36V501.857V502.857H759V501.857Z" fill="#D1D3E0" mask="url(#path-120-inside-16_22_14777)"/>
<g style="mix-blend-mode:luminosity">
<rect x="48" y="446.429" width="275" height="14" rx="7" fill="#A9AFB8" fill-opacity="0.7"/>
</g>
</g>
<g style="mix-blend-mode:luminosity">
<mask id="path-123-inside-17_22_14777" fill="white">
<path d="M36 501.857H759V569.286H36V501.857Z"/>
</mask>
<path d="M36 501.857H759V569.286H36V501.857Z" fill="white"/>
<path d="M759 569.286V568.286H36V569.286V570.286H759V569.286Z" fill="#D1D3E0" mask="url(#path-123-inside-17_22_14777)"/>
<g style="mix-blend-mode:luminosity">
<rect x="48" y="513.857" width="279" height="14" rx="7" fill="#A9AFB8" fill-opacity="0.7"/>
</g>
</g>
<g style="mix-blend-mode:luminosity">
<mask id="path-126-inside-18_22_14777" fill="white">
<path d="M36 569.286H759V636.714H36V569.286Z"/>
</mask>
<path d="M36 569.286H759V636.714H36V569.286Z" fill="white"/>
<path d="M759 636.714V635.714H36V636.714V637.714H759V636.714Z" fill="#D1D3E0" mask="url(#path-126-inside-18_22_14777)"/>
<g style="mix-blend-mode:luminosity">
<rect x="48" y="581.286" width="272" height="14" rx="7" fill="#A9AFB8" fill-opacity="0.7"/>
</g>
</g>
</g>
<g style="mix-blend-mode:luminosity">
<g style="mix-blend-mode:luminosity">
<rect width="40" height="48" transform="translate(759 319)" fill="#E1E2EA"/>
</g>
<g style="mix-blend-mode:luminosity">
<mask id="path-129-inside-19_22_14777" fill="white">
<path d="M759 367H799V434.429H759V367Z"/>
</mask>
<path d="M759 367H799V434.429H759V367Z" fill="white"/>
<path d="M799 434.429V433.429H759V434.429V435.429H799V434.429Z" fill="#D1D3E0" mask="url(#path-129-inside-19_22_14777)"/>
<g style="mix-blend-mode:luminosity">
<g style="mix-blend-mode:luminosity">
<path d="M778.999 384.333C779.733 384.333 780.333 383.733 780.333 383C780.333 382.267 779.733 381.667 778.999 381.667C778.266 381.667 777.666 382.267 777.666 383C777.666 383.733 778.266 384.333 778.999 384.333ZM778.999 385.667C778.266 385.667 777.666 386.267 777.666 387C777.666 387.733 778.266 388.333 778.999 388.333C779.733 388.333 780.333 387.733 780.333 387C780.333 386.267 779.733 385.667 778.999 385.667ZM778.999 389.667C778.266 389.667 777.666 390.267 777.666 391C777.666 391.733 778.266 392.333 778.999 392.333C779.733 392.333 780.333 391.733 780.333 391C780.333 390.267 779.733 389.667 778.999 389.667Z" fill="#4E4E4E" fill-opacity="0.7"/>
</g>
</g>
</g>
<g style="mix-blend-mode:luminosity">
<mask id="path-132-inside-20_22_14777" fill="white">
<path d="M759 434.429H799V501.857H759V434.429Z"/>
</mask>
<path d="M759 434.429H799V501.857H759V434.429Z" fill="white"/>
<path d="M799 501.857V500.857H759V501.857V502.857H799V501.857Z" fill="#D1D3E0" mask="url(#path-132-inside-20_22_14777)"/>
<g style="mix-blend-mode:luminosity">
<g style="mix-blend-mode:luminosity">
<path d="M778.999 451.762C779.733 451.762 780.333 451.162 780.333 450.429C780.333 449.695 779.733 449.095 778.999 449.095C778.266 449.095 777.666 449.695 777.666 450.429C777.666 451.162 778.266 451.762 778.999 451.762ZM778.999 453.095C778.266 453.095 777.666 453.695 777.666 454.429C777.666 455.162 778.266 455.762 778.999 455.762C779.733 455.762 780.333 455.162 780.333 454.429C780.333 453.695 779.733 453.095 778.999 453.095ZM778.999 457.095C778.266 457.095 777.666 457.695 777.666 458.429C777.666 459.162 778.266 459.762 778.999 459.762C779.733 459.762 780.333 459.162 780.333 458.429C780.333 457.695 779.733 457.095 778.999 457.095Z" fill="#4E4E4E" fill-opacity="0.7"/>
</g>
</g>
</g>
<g style="mix-blend-mode:luminosity">
<mask id="path-135-inside-21_22_14777" fill="white">
<path d="M759 501.857H799V569.286H759V501.857Z"/>
</mask>
<path d="M759 501.857H799V569.286H759V501.857Z" fill="white"/>
<path d="M799 569.286V568.286H759V569.286V570.286H799V569.286Z" fill="#D1D3E0" mask="url(#path-135-inside-21_22_14777)"/>
<g style="mix-blend-mode:luminosity">
<g style="mix-blend-mode:luminosity">
<path d="M778.999 519.19C779.733 519.19 780.333 518.59 780.333 517.857C780.333 517.124 779.733 516.524 778.999 516.524C778.266 516.524 777.666 517.124 777.666 517.857C777.666 518.59 778.266 519.19 778.999 519.19ZM778.999 520.524C778.266 520.524 777.666 521.124 777.666 521.857C777.666 522.59 778.266 523.19 778.999 523.19C779.733 523.19 780.333 522.59 780.333 521.857C780.333 521.124 779.733 520.524 778.999 520.524ZM778.999 524.524C778.266 524.524 777.666 525.124 777.666 525.857C777.666 526.59 778.266 527.19 778.999 527.19C779.733 527.19 780.333 526.59 780.333 525.857C780.333 525.124 779.733 524.524 778.999 524.524Z" fill="#4E4E4E" fill-opacity="0.7"/>
</g>
</g>
</g>
<g style="mix-blend-mode:luminosity">
<mask id="path-138-inside-22_22_14777" fill="white">
<path d="M759 569.286H799V636.714H759V569.286Z"/>
</mask>
<path d="M759 569.286H799V636.714H759V569.286Z" fill="white"/>
<path d="M799 636.714V635.714H759V636.714V637.714H799V636.714Z" fill="#D1D3E0" mask="url(#path-138-inside-22_22_14777)"/>
<g style="mix-blend-mode:luminosity">
<g style="mix-blend-mode:luminosity">
<path d="M778.999 586.619C779.733 586.619 780.333 586.019 780.333 585.286C780.333 584.552 779.733 583.952 778.999 583.952C778.266 583.952 777.666 584.552 777.666 585.286C777.666 586.019 778.266 586.619 778.999 586.619ZM778.999 587.952C778.266 587.952 777.666 588.552 777.666 589.286C777.666 590.019 778.266 590.619 778.999 590.619C779.733 590.619 780.333 590.019 780.333 589.286C780.333 588.552 779.733 587.952 778.999 587.952ZM778.999 591.952C778.266 591.952 777.666 592.552 777.666 593.286C777.666 594.019 778.266 594.619 778.999 594.619C779.733 594.619 780.333 594.019 780.333 593.286C780.333 592.552 779.733 591.952 778.999 591.952Z" fill="#4E4E4E" fill-opacity="0.7"/>
</g>
</g>
</g>
</g>
</g>
<g style="mix-blend-mode:luminosity">
<g opacity="0.3" style="mix-blend-mode:luminosity">
<rect x="4" y="50" width="826" height="816" fill="black"/>
</g>
</g>
<g style="mix-blend-mode:luminosity" filter="url(#filter4_d_22_14777)">
<path d="M90 164C90 161.791 91.7909 160 94 160H726C728.209 160 730 161.791 730 164V446C730 448.209 728.209 450 726 450H94C91.7909 450 90 448.209 90 446V164Z" fill="#FAFAFA" shape-rendering="crispEdges"/>
<g style="mix-blend-mode:luminosity">
<g style="mix-blend-mode:luminosity">
<mask id="path-144-inside-23_22_14777" fill="white">
<path d="M122 160H698V220H122V160Z"/>
</mask>
<path d="M698 220V219H122V220V221H698V220Z" fill="#F4F4F4" mask="url(#path-144-inside-23_22_14777)"/>
<rect x="122" y="180" width="278" height="20" rx="8" fill="#A9AFB8" fill-opacity="0.7"/>
<g style="mix-blend-mode:luminosity" clip-path="url(#clip6_22_14777)">
<path d="M690.5 181.615L688.385 179.5L680 187.885L671.615 179.5L669.5 181.615L677.885 190L669.5 198.385L671.615 200.5L680 192.115L688.385 200.5L690.5 198.385L682.115 190L690.5 181.615Z" fill="#404040" fill-opacity="0.7"/>
</g>
</g>
</g>
<g style="mix-blend-mode:luminosity">
<rect x="122" y="230" width="576" height="16" rx="8" fill="#A9AFB8" fill-opacity="0.7"/>
<g style="mix-blend-mode:luminosity">
<g style="mix-blend-mode:luminosity">
<path d="M122 260C122 257.791 123.791 256 126 256H694C696.209 256 698 257.791 698 260V329C698 331.209 696.209 333 694 333H126C123.791 333 122 331.209 122 329V260Z" fill="#E3E3E3"/>
<path d="M126 256.5H694C695.933 256.5 697.5 258.067 697.5 260V329C697.5 330.933 695.933 332.5 694 332.5H126C124.067 332.5 122.5 330.933 122.5 329V260C122.5 258.067 124.067 256.5 126 256.5Z" stroke="#E3E3E3" stroke-opacity="0.7"/>
<g style="mix-blend-mode:luminosity">
<g style="mix-blend-mode:luminosity">
<g style="mix-blend-mode:luminosity">
<rect x="134" y="268" width="224" height="12" rx="6" fill="#A9AFB8" fill-opacity="0.7"/>
</g>
</g>
</g>
</g>
<rect x="122" y="346" width="294" height="12" rx="6" fill="#A9AFB8" fill-opacity="0.7"/>
</g>
<g style="mix-blend-mode:luminosity">
<mask id="path-153-inside-24_22_14777" fill="white">
<path d="M122 368H698V438H122V368Z"/>
</mask>
<path d="M122 368V369H698V368V367H122V368Z" fill="#D4D4D4" fill-opacity="0.7" mask="url(#path-153-inside-24_22_14777)"/>
<g style="mix-blend-mode:luminosity" clip-path="url(#clip7_22_14777)">
<g style="mix-blend-mode:luminosity">
<rect x="548" y="384" width="72" height="38" rx="4" fill="#D7D7D7"/>
<rect x="558" y="395" width="52" height="16" rx="8" fill="#A9AFB8" fill-opacity="0.7"/>
</g>
<g style="mix-blend-mode:luminosity">
<rect x="628" y="384" width="70" height="38" rx="4" fill="#FF0000"/>
<rect x="638" y="395" width="50" height="16" rx="8" fill="#A9AFB8" fill-opacity="0.7"/>
</g>
</g>
</g>
</g>
</g>
</g>
<rect x="703" y="43" width="96" height="81" fill="white"/>
<path d="M751.583 19C715.933 19 687 47.9333 687 83.5833C687 119.233 715.933 148.167 751.583 148.167C787.233 148.167 816.167 119.233 816.167 83.5833C816.167 47.9333 787.233 19 751.583 19ZM738.667 115.875L706.375 83.5833L715.481 74.4771L738.667 97.5979L787.685 48.5792L796.792 57.75L738.667 115.875Z" fill="#3BFF5B"/>
</g>
</g>
<defs>
<filter id="filter0_d_22_14777" x="849" y="0" width="834" height="613" filterUnits="userSpaceOnUse" color-interpolation-filters="sRGB">
<feFlood flood-opacity="0" result="BackgroundImageFix"/>
<feColorMatrix in="SourceAlpha" type="matrix" values="0 0 0 0 0 0 0 0 0 0 0 0 0 0 0 0 0 0 127 0" result="hardAlpha"/>
<feOffset dy="4"/>
<feGaussianBlur stdDeviation="2"/>
<feComposite in2="hardAlpha" operator="out"/>
<feColorMatrix type="matrix" values="0 0 0 0 0 0 0 0 0 0 0 0 0 0 0 0 0 0 0.25 0"/>
<feBlend mode="normal" in2="BackgroundImageFix" result="effect1_dropShadow_22_14777"/>
<feBlend mode="normal" in="SourceGraphic" in2="effect1_dropShadow_22_14777" result="shape"/>
</filter>
<filter id="filter1_d_22_14777" x="935" y="156" width="648" height="298" filterUnits="userSpaceOnUse" color-interpolation-filters="sRGB">
<feFlood flood-opacity="0" result="BackgroundImageFix"/>
<feColorMatrix in="SourceAlpha" type="matrix" values="0 0 0 0 0 0 0 0 0 0 0 0 0 0 0 0 0 0 127 0" result="hardAlpha"/>
<feOffset/>
<feGaussianBlur stdDeviation="2"/>
<feComposite in2="hardAlpha" operator="out"/>
<feColorMatrix type="matrix" values="0 0 0 0 0 0 0 0 0 0 0 0 0 0 0 0 0 0 0.15 0"/>
<feBlend mode="normal" in2="BackgroundImageFix" result="effect1_dropShadow_22_14777"/>
<feBlend mode="normal" in="SourceGraphic" in2="effect1_dropShadow_22_14777" result="shape"/>
</filter>
<filter id="filter2_d_22_14777" x="1539" y="19" width="124.25" height="124.25" filterUnits="userSpaceOnUse" color-interpolation-filters="sRGB">
<feFlood flood-opacity="0" result="BackgroundImageFix"/>
<feColorMatrix in="SourceAlpha" type="matrix" values="0 0 0 0 0 0 0 0 0 0 0 0 0 0 0 0 0 0 127 0" result="hardAlpha"/>
<feOffset dy="4"/>
<feGaussianBlur stdDeviation="2"/>
<feComposite in2="hardAlpha" operator="out"/>
<feColorMatrix type="matrix" values="0 0 0 0 0 0 0 0 0 0 0 0 0 0 0 0 0 0 0.25 0"/>
<feBlend mode="normal" in2="BackgroundImageFix" result="effect1_dropShadow_22_14777"/>
<feBlend mode="normal" in="SourceGraphic" in2="effect1_dropShadow_22_14777" result="shape"/>
</filter>
<filter id="filter3_d_22_14777" x="0" y="0" width="834" height="613" filterUnits="userSpaceOnUse" color-interpolation-filters="sRGB">
<feFlood flood-opacity="0" result="BackgroundImageFix"/>
<feColorMatrix in="SourceAlpha" type="matrix" values="0 0 0 0 0 0 0 0 0 0 0 0 0 0 0 0 0 0 127 0" result="hardAlpha"/>
<feOffset dy="4"/>
<feGaussianBlur stdDeviation="2"/>
<feComposite in2="hardAlpha" operator="out"/>
<feColorMatrix type="matrix" values="0 0 0 0 0 0 0 0 0 0 0 0 0 0 0 0 0 0 0.25 0"/>
<feBlend mode="normal" in2="BackgroundImageFix" result="effect1_dropShadow_22_14777"/>
<feBlend mode="normal" in="SourceGraphic" in2="effect1_dropShadow_22_14777" result="shape"/>
</filter>
<filter id="filter4_d_22_14777" x="86" y="156" width="648" height="298" filterUnits="userSpaceOnUse" color-interpolation-filters="sRGB">
<feFlood flood-opacity="0" result="BackgroundImageFix"/>
<feColorMatrix in="SourceAlpha" type="matrix" values="0 0 0 0 0 0 0 0 0 0 0 0 0 0 0 0 0 0 127 0" result="hardAlpha"/>
<feOffset/>
<feGaussianBlur stdDeviation="2"/>
<feComposite in2="hardAlpha" operator="out"/>
<feColorMatrix type="matrix" values="0 0 0 0 0 0 0 0 0 0 0 0 0 0 0 0 0 0 0.15 0"/>
<feBlend mode="normal" in2="BackgroundImageFix" result="effect1_dropShadow_22_14777"/>
<feBlend mode="normal" in="SourceGraphic" in2="effect1_dropShadow_22_14777" result="shape"/>
</filter>
<clipPath id="clip0_22_14777">
<rect x="853" width="826" height="605" rx="20" fill="white"/>
</clipPath>
<clipPath id="clip1_22_14777">
<rect width="18" height="18" fill="white" transform="translate(889 68)"/>
</clipPath>
<clipPath id="clip2_22_14777">
<rect width="36" height="36" fill="white" transform="translate(1511 172)"/>
</clipPath>
<clipPath id="clip3_22_14777">
<rect width="150" height="38" fill="white" transform="translate(1397 384)"/>
</clipPath>
<clipPath id="clip4_22_14777">
<rect x="4" width="826" height="605" rx="20" fill="white"/>
</clipPath>
<clipPath id="clip5_22_14777">
<rect width="18" height="18" fill="white" transform="translate(40 68)"/>
</clipPath>
<clipPath id="clip6_22_14777">
<rect width="36" height="36" fill="white" transform="translate(662 172)"/>
</clipPath>
<clipPath id="clip7_22_14777">
<rect width="150" height="38" fill="white" transform="translate(548 384)"/>
</clipPath>
</defs>
</svg>
