<svg width="1206" height="893" viewBox="0 0 1206 893" fill="none" xmlns="http://www.w3.org/2000/svg">
<g filter="url(#filter0_d_18_6774)">
<g clip-path="url(#clip0_18_6774)">
<rect x="449" y="167" width="577" height="636" rx="20" fill="#1C2033"/>
<g style="mix-blend-mode:luminosity" clip-path="url(#clip1_18_6774)">
<rect width="578" height="637" transform="translate(449 167)" fill="#F5F6F7"/>
<g style="mix-blend-mode:luminosity">
<g style="mix-blend-mode:luminosity">
<g style="mix-blend-mode:luminosity">
<rect width="522" height="48" transform="translate(448 167)" fill="#E1E2EA"/>
<g style="mix-blend-mode:luminosity">
<rect x="460" y="184" width="34" height="14" rx="7" fill="#A9AFB8" fill-opacity="0.7"/>
</g>
</g>
<g style="mix-blend-mode:luminosity">
<mask id="path-3-inside-1_18_6774" fill="white">
<path d="M448 215H970V273.8H448V215Z"/>
</mask>
<path d="M970 273.8V272.8H448V273.8V274.8H970V273.8Z" fill="#D1D3E0" mask="url(#path-3-inside-1_18_6774)"/>
<g style="mix-blend-mode:luminosity">
<rect x="460" y="227" width="270" height="14" rx="7" fill="#A9AFB8" fill-opacity="0.7"/>
</g>
</g>
<g style="mix-blend-mode:luminosity">
<mask id="path-6-inside-2_18_6774" fill="white">
<path d="M448 273.8H970V332.6H448V273.8Z"/>
</mask>
<path d="M970 332.6V331.6H448V332.6V333.6H970V332.6Z" fill="#D1D3E0" mask="url(#path-6-inside-2_18_6774)"/>
<g style="mix-blend-mode:luminosity">
<rect x="460" y="285.8" width="209" height="14" rx="7" fill="#A9AFB8" fill-opacity="0.7"/>
</g>
</g>
<g style="mix-blend-mode:luminosity">
<mask id="path-9-inside-3_18_6774" fill="white">
<path d="M448 332.6H970V391.4H448V332.6Z"/>
</mask>
<path d="M970 391.4V390.4H448V391.4V392.4H970V391.4Z" fill="#D1D3E0" mask="url(#path-9-inside-3_18_6774)"/>
<g style="mix-blend-mode:luminosity">
<rect x="460" y="344.6" width="305" height="14" rx="7" fill="#A9AFB8" fill-opacity="0.7"/>
</g>
</g>
<g style="mix-blend-mode:luminosity">
<mask id="path-12-inside-4_18_6774" fill="white">
<path d="M448 391.4H970V450.2H448V391.4Z"/>
</mask>
<path d="M970 450.2V449.2H448V450.2V451.2H970V450.2Z" fill="#D1D3E0" mask="url(#path-12-inside-4_18_6774)"/>
<g style="mix-blend-mode:luminosity">
<rect x="460" y="403.4" width="272" height="14" rx="7" fill="#A9AFB8" fill-opacity="0.7"/>
</g>
</g>
<g style="mix-blend-mode:luminosity">
<mask id="path-15-inside-5_18_6774" fill="white">
<path d="M448 450.2H970V509H448V450.2Z"/>
</mask>
<path d="M970 509V508H448V509V510H970V509Z" fill="#D1D3E0" mask="url(#path-15-inside-5_18_6774)"/>
<g style="mix-blend-mode:luminosity">
<rect x="460" y="462.2" width="206" height="14" rx="7" fill="#A9AFB8" fill-opacity="0.7"/>
</g>
</g>
<g style="mix-blend-mode:luminosity">
<mask id="path-18-inside-6_18_6774" fill="white">
<path d="M448 509H970V567.8H448V509Z"/>
</mask>
<path d="M970 567.8V566.8H448V567.8V568.8H970V567.8Z" fill="#D1D3E0" mask="url(#path-18-inside-6_18_6774)"/>
<g style="mix-blend-mode:luminosity">
<rect x="460" y="521" width="314" height="14" rx="7" fill="#A9AFB8" fill-opacity="0.7"/>
</g>
</g>
<g style="mix-blend-mode:luminosity">
<mask id="path-21-inside-7_18_6774" fill="white">
<path d="M448 567.8H970V626.6H448V567.8Z"/>
</mask>
<path d="M970 626.6V625.6H448V626.6V627.6H970V626.6Z" fill="#D1D3E0" mask="url(#path-21-inside-7_18_6774)"/>
<g style="mix-blend-mode:luminosity">
<rect x="460" y="579.8" width="233" height="14" rx="7" fill="#A9AFB8" fill-opacity="0.7"/>
</g>
</g>
<g style="mix-blend-mode:luminosity">
<mask id="path-24-inside-8_18_6774" fill="white">
<path d="M448 626.6H970V685.4H448V626.6Z"/>
</mask>
<path d="M970 685.4V684.4H448V685.4V686.4H970V685.4Z" fill="#D1D3E0" mask="url(#path-24-inside-8_18_6774)"/>
<g style="mix-blend-mode:luminosity">
<rect x="460" y="638.6" width="342" height="14" rx="7" fill="#A9AFB8" fill-opacity="0.7"/>
</g>
</g>
<g style="mix-blend-mode:luminosity">
<mask id="path-27-inside-9_18_6774" fill="white">
<path d="M448 685.4H970V744.2H448V685.4Z"/>
</mask>
<path d="M970 744.2V743.2H448V744.2V745.2H970V744.2Z" fill="#D1D3E0" mask="url(#path-27-inside-9_18_6774)"/>
<g style="mix-blend-mode:luminosity">
<rect x="460" y="697.4" width="289" height="14" rx="7" fill="#A9AFB8" fill-opacity="0.7"/>
</g>
</g>
<g style="mix-blend-mode:luminosity">
<mask id="path-30-inside-10_18_6774" fill="white">
<path d="M448 744.2H970V803H448V744.2Z"/>
</mask>
<path d="M970 803V802H448V803V804H970V803Z" fill="#D1D3E0" mask="url(#path-30-inside-10_18_6774)"/>
<g style="mix-blend-mode:luminosity">
<rect x="460" y="756.2" width="277" height="14" rx="7" fill="#A9AFB8" fill-opacity="0.7"/>
</g>
</g>
</g>
<g style="mix-blend-mode:luminosity">
<g style="mix-blend-mode:luminosity">
<rect width="56" height="48" transform="translate(970 167)" fill="#E1E2EA"/>
</g>
<g style="mix-blend-mode:luminosity">
<mask id="path-33-inside-11_18_6774" fill="white">
<path d="M970 215H1026V273.8H970V215Z"/>
</mask>
<path d="M1026 273.8V272.8H970V273.8V274.8H1026V273.8Z" fill="#D1D3E0" mask="url(#path-33-inside-11_18_6774)"/>
<g style="mix-blend-mode:luminosity">
<g style="mix-blend-mode:luminosity">
<path d="M997.999 237.667C999.465 237.667 1000.67 236.467 1000.67 235C1000.67 233.533 999.465 232.333 997.999 232.333C996.532 232.333 995.332 233.533 995.332 235C995.332 236.467 996.532 237.667 997.999 237.667ZM997.999 240.333C996.532 240.333 995.332 241.533 995.332 243C995.332 244.467 996.532 245.667 997.999 245.667C999.465 245.667 1000.67 244.467 1000.67 243C1000.67 241.533 999.465 240.333 997.999 240.333ZM997.999 248.333C996.532 248.333 995.332 249.533 995.332 251C995.332 252.467 996.532 253.667 997.999 253.667C999.465 253.667 1000.67 252.467 1000.67 251C1000.67 249.533 999.465 248.333 997.999 248.333Z" fill="#4E4E4E" fill-opacity="0.7"/>
</g>
</g>
</g>
<g style="mix-blend-mode:luminosity">
<mask id="path-36-inside-12_18_6774" fill="white">
<path d="M970 273.8H1026V332.6H970V273.8Z"/>
</mask>
<path d="M1026 332.6V331.6H970V332.6V333.6H1026V332.6Z" fill="#D1D3E0" mask="url(#path-36-inside-12_18_6774)"/>
<g style="mix-blend-mode:luminosity">
<g style="mix-blend-mode:luminosity">
<path d="M997.999 296.467C999.465 296.467 1000.67 295.267 1000.67 293.8C1000.67 292.334 999.465 291.134 997.999 291.134C996.532 291.134 995.332 292.334 995.332 293.8C995.332 295.267 996.532 296.467 997.999 296.467ZM997.999 299.134C996.532 299.134 995.332 300.334 995.332 301.8C995.332 303.267 996.532 304.467 997.999 304.467C999.465 304.467 1000.67 303.267 1000.67 301.8C1000.67 300.334 999.465 299.134 997.999 299.134ZM997.999 307.134C996.532 307.134 995.332 308.334 995.332 309.8C995.332 311.267 996.532 312.467 997.999 312.467C999.465 312.467 1000.67 311.267 1000.67 309.8C1000.67 308.334 999.465 307.134 997.999 307.134Z" fill="#4E4E4E" fill-opacity="0.7"/>
</g>
</g>
</g>
<g style="mix-blend-mode:luminosity">
<mask id="path-39-inside-13_18_6774" fill="white">
<path d="M970 332.6H1026V391.4H970V332.6Z"/>
</mask>
<path d="M1026 391.4V390.4H970V391.4V392.4H1026V391.4Z" fill="#D1D3E0" mask="url(#path-39-inside-13_18_6774)"/>
<g style="mix-blend-mode:luminosity">
<g style="mix-blend-mode:luminosity">
<path d="M997.999 355.267C999.465 355.267 1000.67 354.067 1000.67 352.6C1000.67 351.133 999.465 349.933 997.999 349.933C996.532 349.933 995.332 351.133 995.332 352.6C995.332 354.067 996.532 355.267 997.999 355.267ZM997.999 357.933C996.532 357.933 995.332 359.133 995.332 360.6C995.332 362.067 996.532 363.267 997.999 363.267C999.465 363.267 1000.67 362.067 1000.67 360.6C1000.67 359.133 999.465 357.933 997.999 357.933ZM997.999 365.933C996.532 365.933 995.332 367.133 995.332 368.6C995.332 370.067 996.532 371.267 997.999 371.267C999.465 371.267 1000.67 370.067 1000.67 368.6C1000.67 367.133 999.465 365.933 997.999 365.933Z" fill="#4E4E4E" fill-opacity="0.7"/>
</g>
</g>
</g>
<g style="mix-blend-mode:luminosity">
<mask id="path-42-inside-14_18_6774" fill="white">
<path d="M970 391.4H1026V450.2H970V391.4Z"/>
</mask>
<path d="M1026 450.2V449.2H970V450.2V451.2H1026V450.2Z" fill="#D1D3E0" mask="url(#path-42-inside-14_18_6774)"/>
<g style="mix-blend-mode:luminosity">
<g style="mix-blend-mode:luminosity">
<path d="M997.999 414.067C999.465 414.067 1000.67 412.867 1000.67 411.4C1000.67 409.934 999.465 408.734 997.999 408.734C996.532 408.734 995.332 409.934 995.332 411.4C995.332 412.867 996.532 414.067 997.999 414.067ZM997.999 416.734C996.532 416.734 995.332 417.934 995.332 419.4C995.332 420.867 996.532 422.067 997.999 422.067C999.465 422.067 1000.67 420.867 1000.67 419.4C1000.67 417.934 999.465 416.734 997.999 416.734ZM997.999 424.734C996.532 424.734 995.332 425.934 995.332 427.4C995.332 428.867 996.532 430.067 997.999 430.067C999.465 430.067 1000.67 428.867 1000.67 427.4C1000.67 425.934 999.465 424.734 997.999 424.734Z" fill="#4E4E4E" fill-opacity="0.7"/>
</g>
</g>
</g>
<g style="mix-blend-mode:luminosity">
<mask id="path-45-inside-15_18_6774" fill="white">
<path d="M970 450.2H1026V509H970V450.2Z"/>
</mask>
<path d="M1026 509V508H970V509V510H1026V509Z" fill="#D1D3E0" mask="url(#path-45-inside-15_18_6774)"/>
<g style="mix-blend-mode:luminosity">
<g style="mix-blend-mode:luminosity">
<rect x="983" y="463.2" width="30" height="30" rx="3" stroke="#4E4E4E" stroke-opacity="0.7" stroke-width="2"/>
<path d="M997.999 472.867C999.465 472.867 1000.67 471.667 1000.67 470.2C1000.67 468.733 999.465 467.533 997.999 467.533C996.532 467.533 995.332 468.733 995.332 470.2C995.332 471.667 996.532 472.867 997.999 472.867ZM997.999 475.533C996.532 475.533 995.332 476.733 995.332 478.2C995.332 479.667 996.532 480.867 997.999 480.867C999.465 480.867 1000.67 479.667 1000.67 478.2C1000.67 476.733 999.465 475.533 997.999 475.533ZM997.999 483.533C996.532 483.533 995.332 484.733 995.332 486.2C995.332 487.667 996.532 488.867 997.999 488.867C999.465 488.867 1000.67 487.667 1000.67 486.2C1000.67 484.733 999.465 483.533 997.999 483.533Z" fill="#4E4E4E" fill-opacity="0.7"/>
</g>
</g>
</g>
<g style="mix-blend-mode:luminosity">
<mask id="path-50-inside-16_18_6774" fill="white">
<path d="M970 509H1010V567.8H970V509Z"/>
</mask>
<path d="M970 509H1010V567.8H970V509Z" fill="white"/>
<path d="M1010 567.8V566.8H970V567.8V568.8H1010V567.8Z" fill="#D1D3E0" mask="url(#path-50-inside-16_18_6774)"/>
<g style="mix-blend-mode:luminosity">
<g style="mix-blend-mode:luminosity">
<path d="M989.999 526.333C990.733 526.333 991.333 525.733 991.333 525C991.333 524.267 990.733 523.667 989.999 523.667C989.266 523.667 988.666 524.267 988.666 525C988.666 525.733 989.266 526.333 989.999 526.333ZM989.999 527.667C989.266 527.667 988.666 528.267 988.666 529C988.666 529.733 989.266 530.333 989.999 530.333C990.733 530.333 991.333 529.733 991.333 529C991.333 528.267 990.733 527.667 989.999 527.667ZM989.999 531.667C989.266 531.667 988.666 532.267 988.666 533C988.666 533.733 989.266 534.333 989.999 534.333C990.733 534.333 991.333 533.733 991.333 533C991.333 532.267 990.733 531.667 989.999 531.667Z" fill="#4E4E4E" fill-opacity="0.7"/>
</g>
</g>
</g>
<g style="mix-blend-mode:luminosity">
<mask id="path-53-inside-17_18_6774" fill="white">
<path d="M970 567.8H1026V626.6H970V567.8Z"/>
</mask>
<path d="M1026 626.6V625.6H970V626.6V627.6H1026V626.6Z" fill="#D1D3E0" mask="url(#path-53-inside-17_18_6774)"/>
<g style="mix-blend-mode:luminosity">
<g style="mix-blend-mode:luminosity">
<path d="M997.999 590.467C999.465 590.467 1000.67 589.267 1000.67 587.8C1000.67 586.334 999.465 585.134 997.999 585.134C996.532 585.134 995.332 586.334 995.332 587.8C995.332 589.267 996.532 590.467 997.999 590.467ZM997.999 593.134C996.532 593.134 995.332 594.334 995.332 595.8C995.332 597.267 996.532 598.467 997.999 598.467C999.465 598.467 1000.67 597.267 1000.67 595.8C1000.67 594.334 999.465 593.134 997.999 593.134ZM997.999 601.134C996.532 601.134 995.332 602.334 995.332 603.8C995.332 605.267 996.532 606.467 997.999 606.467C999.465 606.467 1000.67 605.267 1000.67 603.8C1000.67 602.334 999.465 601.134 997.999 601.134Z" fill="#4E4E4E" fill-opacity="0.7"/>
</g>
</g>
</g>
<g style="mix-blend-mode:luminosity">
<mask id="path-56-inside-18_18_6774" fill="white">
<path d="M970 626.6H1026V685.4H970V626.6Z"/>
</mask>
<path d="M1026 685.4V684.4H970V685.4V686.4H1026V685.4Z" fill="#D1D3E0" mask="url(#path-56-inside-18_18_6774)"/>
<g style="mix-blend-mode:luminosity">
<g style="mix-blend-mode:luminosity">
<path d="M997.999 649.267C999.465 649.267 1000.67 648.067 1000.67 646.6C1000.67 645.133 999.465 643.933 997.999 643.933C996.532 643.933 995.332 645.133 995.332 646.6C995.332 648.067 996.532 649.267 997.999 649.267ZM997.999 651.933C996.532 651.933 995.332 653.133 995.332 654.6C995.332 656.067 996.532 657.267 997.999 657.267C999.465 657.267 1000.67 656.067 1000.67 654.6C1000.67 653.133 999.465 651.933 997.999 651.933ZM997.999 659.933C996.532 659.933 995.332 661.133 995.332 662.6C995.332 664.067 996.532 665.267 997.999 665.267C999.465 665.267 1000.67 664.067 1000.67 662.6C1000.67 661.133 999.465 659.933 997.999 659.933Z" fill="#4E4E4E" fill-opacity="0.7"/>
</g>
</g>
</g>
<g style="mix-blend-mode:luminosity">
<mask id="path-59-inside-19_18_6774" fill="white">
<path d="M970 685.4H1026V744.2H970V685.4Z"/>
</mask>
<path d="M1026 744.2V743.2H970V744.2V745.2H1026V744.2Z" fill="#D1D3E0" mask="url(#path-59-inside-19_18_6774)"/>
<g style="mix-blend-mode:luminosity">
<g style="mix-blend-mode:luminosity">
<path d="M997.999 708.067C999.465 708.067 1000.67 706.867 1000.67 705.4C1000.67 703.933 999.465 702.733 997.999 702.733C996.532 702.733 995.332 703.933 995.332 705.4C995.332 706.867 996.532 708.067 997.999 708.067ZM997.999 710.733C996.532 710.733 995.332 711.933 995.332 713.4C995.332 714.867 996.532 716.067 997.999 716.067C999.465 716.067 1000.67 714.867 1000.67 713.4C1000.67 711.933 999.465 710.733 997.999 710.733ZM997.999 718.733C996.532 718.733 995.332 719.933 995.332 721.4C995.332 722.867 996.532 724.067 997.999 724.067C999.465 724.067 1000.67 722.867 1000.67 721.4C1000.67 719.933 999.465 718.733 997.999 718.733Z" fill="#4E4E4E" fill-opacity="0.7"/>
</g>
</g>
</g>
<g style="mix-blend-mode:luminosity">
<mask id="path-62-inside-20_18_6774" fill="white">
<path d="M970 744.2H1026V803H970V744.2Z"/>
</mask>
<path d="M1026 803V802H970V803V804H1026V803Z" fill="#D1D3E0" mask="url(#path-62-inside-20_18_6774)"/>
<g style="mix-blend-mode:luminosity">
<g style="mix-blend-mode:luminosity">
<path d="M997.999 766.867C999.465 766.867 1000.67 765.667 1000.67 764.2C1000.67 762.733 999.465 761.533 997.999 761.533C996.532 761.533 995.332 762.733 995.332 764.2C995.332 765.667 996.532 766.867 997.999 766.867ZM997.999 769.533C996.532 769.533 995.332 770.733 995.332 772.2C995.332 773.667 996.532 774.867 997.999 774.867C999.465 774.867 1000.67 773.667 1000.67 772.2C1000.67 770.733 999.465 769.533 997.999 769.533ZM997.999 777.533C996.532 777.533 995.332 778.733 995.332 780.2C995.332 781.667 996.532 782.867 997.999 782.867C999.465 782.867 1000.67 781.667 1000.67 780.2C1000.67 778.733 999.465 777.533 997.999 777.533Z" fill="#4E4E4E" fill-opacity="0.7"/>
</g>
</g>
</g>
</g>
</g>
<g style="mix-blend-mode:luminosity" filter="url(#filter1_d_18_6774)">
<rect x="852" y="498" width="162" height="56" rx="4" fill="white" shape-rendering="crispEdges"/>
<rect x="852" y="498" width="162" height="56" rx="4" stroke="#BBBBBB" stroke-opacity="0.7" stroke-width="2" shape-rendering="crispEdges"/>
<g style="mix-blend-mode:luminosity">
<g style="mix-blend-mode:luminosity">
<path d="M874 533C874 534.1 874.9 535 876 535H884C885.1 535 886 534.1 886 533V521H874V533ZM887 518H883.5L882.5 517H877.5L876.5 518H873V520H887V518Z" fill="#A4A4A4" fill-opacity="0.7"/>
</g>
<rect x="902" y="518" width="96" height="16" rx="8" fill="#A9AFB8" fill-opacity="0.7"/>
</g>
</g>
</g>
</g>
</g>
<g filter="url(#filter2_d_18_6774)">
<g clip-path="url(#clip2_18_6774)">
<rect x="4" width="577" height="636" rx="20" fill="#1C2033"/>
<g style="mix-blend-mode:luminosity" clip-path="url(#clip3_18_6774)">
<rect width="578" height="637" transform="translate(4)" fill="#F5F6F7"/>
<g style="mix-blend-mode:luminosity">
<g style="mix-blend-mode:luminosity">
<g style="mix-blend-mode:luminosity">
<rect width="522" height="48" transform="translate(3)" fill="#E1E2EA"/>
<g style="mix-blend-mode:luminosity">
<rect x="15" y="17" width="34" height="14" rx="7" fill="#A9AFB8" fill-opacity="0.7"/>
</g>
</g>
<g style="mix-blend-mode:luminosity">
<mask id="path-70-inside-21_18_6774" fill="white">
<path d="M3 48H525V106.8H3V48Z"/>
</mask>
<path d="M525 106.8V105.8H3V106.8V107.8H525V106.8Z" fill="#D1D3E0" mask="url(#path-70-inside-21_18_6774)"/>
<g style="mix-blend-mode:luminosity">
<rect x="15" y="60" width="270" height="14" rx="7" fill="#A9AFB8" fill-opacity="0.7"/>
</g>
</g>
<g style="mix-blend-mode:luminosity">
<mask id="path-73-inside-22_18_6774" fill="white">
<path d="M3 106.8H525V165.6H3V106.8Z"/>
</mask>
<path d="M525 165.6V164.6H3V165.6V166.6H525V165.6Z" fill="#D1D3E0" mask="url(#path-73-inside-22_18_6774)"/>
<g style="mix-blend-mode:luminosity">
<rect x="15" y="118.8" width="209" height="14" rx="7" fill="#A9AFB8" fill-opacity="0.7"/>
</g>
</g>
<g style="mix-blend-mode:luminosity">
<mask id="path-76-inside-23_18_6774" fill="white">
<path d="M3 165.6H525V224.4H3V165.6Z"/>
</mask>
<path d="M525 224.4V223.4H3V224.4V225.4H525V224.4Z" fill="#D1D3E0" mask="url(#path-76-inside-23_18_6774)"/>
<g style="mix-blend-mode:luminosity">
<rect x="15" y="177.6" width="305" height="14" rx="7" fill="#A9AFB8" fill-opacity="0.7"/>
</g>
</g>
<g style="mix-blend-mode:luminosity">
<mask id="path-79-inside-24_18_6774" fill="white">
<path d="M3 224.4H525V283.2H3V224.4Z"/>
</mask>
<path d="M525 283.2V282.2H3V283.2V284.2H525V283.2Z" fill="#D1D3E0" mask="url(#path-79-inside-24_18_6774)"/>
<g style="mix-blend-mode:luminosity">
<rect x="15" y="236.4" width="272" height="14" rx="7" fill="#A9AFB8" fill-opacity="0.7"/>
</g>
</g>
<g style="mix-blend-mode:luminosity">
<mask id="path-82-inside-25_18_6774" fill="white">
<path d="M3 283.2H525V342H3V283.2Z"/>
</mask>
<path d="M525 342V341H3V342V343H525V342Z" fill="#D1D3E0" mask="url(#path-82-inside-25_18_6774)"/>
<g style="mix-blend-mode:luminosity">
<rect x="15" y="295.2" width="206" height="14" rx="7" fill="#A9AFB8" fill-opacity="0.7"/>
</g>
</g>
<g style="mix-blend-mode:luminosity">
<mask id="path-85-inside-26_18_6774" fill="white">
<path d="M3 342H525V400.8H3V342Z"/>
</mask>
<path d="M525 400.8V399.8H3V400.8V401.8H525V400.8Z" fill="#D1D3E0" mask="url(#path-85-inside-26_18_6774)"/>
<g style="mix-blend-mode:luminosity">
<rect x="15" y="354" width="314" height="14" rx="7" fill="#A9AFB8" fill-opacity="0.7"/>
</g>
</g>
<g style="mix-blend-mode:luminosity">
<mask id="path-88-inside-27_18_6774" fill="white">
<path d="M3 400.8H525V459.6H3V400.8Z"/>
</mask>
<path d="M525 459.6V458.6H3V459.6V460.6H525V459.6Z" fill="#D1D3E0" mask="url(#path-88-inside-27_18_6774)"/>
<g style="mix-blend-mode:luminosity">
<rect x="15" y="412.8" width="233" height="14" rx="7" fill="#A9AFB8" fill-opacity="0.7"/>
</g>
</g>
<g style="mix-blend-mode:luminosity">
<mask id="path-91-inside-28_18_6774" fill="white">
<path d="M3 459.6H525V518.4H3V459.6Z"/>
</mask>
<path d="M525 518.4V517.4H3V518.4V519.4H525V518.4Z" fill="#D1D3E0" mask="url(#path-91-inside-28_18_6774)"/>
<g style="mix-blend-mode:luminosity">
<rect x="15" y="471.6" width="342" height="14" rx="7" fill="#A9AFB8" fill-opacity="0.7"/>
</g>
</g>
<g style="mix-blend-mode:luminosity">
<mask id="path-94-inside-29_18_6774" fill="white">
<path d="M3 518.4H525V577.2H3V518.4Z"/>
</mask>
<path d="M525 577.2V576.2H3V577.2V578.2H525V577.2Z" fill="#D1D3E0" mask="url(#path-94-inside-29_18_6774)"/>
<g style="mix-blend-mode:luminosity">
<rect x="15" y="530.4" width="289" height="14" rx="7" fill="#A9AFB8" fill-opacity="0.7"/>
</g>
</g>
<g style="mix-blend-mode:luminosity">
<mask id="path-97-inside-30_18_6774" fill="white">
<path d="M3 577.2H525V636H3V577.2Z"/>
</mask>
<path d="M525 636V635H3V636V637H525V636Z" fill="#D1D3E0" mask="url(#path-97-inside-30_18_6774)"/>
<g style="mix-blend-mode:luminosity">
<rect x="15" y="589.2" width="277" height="14" rx="7" fill="#A9AFB8" fill-opacity="0.7"/>
</g>
</g>
</g>
<g style="mix-blend-mode:luminosity">
<g style="mix-blend-mode:luminosity">
<rect width="56" height="48" transform="translate(525)" fill="#E1E2EA"/>
</g>
<g style="mix-blend-mode:luminosity">
<mask id="path-100-inside-31_18_6774" fill="white">
<path d="M525 48H581V106.8H525V48Z"/>
</mask>
<path d="M581 106.8V105.8H525V106.8V107.8H581V106.8Z" fill="#D1D3E0" mask="url(#path-100-inside-31_18_6774)"/>
<g style="mix-blend-mode:luminosity">
<g style="mix-blend-mode:luminosity">
<path d="M552.999 70.6668C554.465 70.6668 555.665 69.4668 555.665 68.0002C555.665 66.5335 554.465 65.3335 552.999 65.3335C551.532 65.3335 550.332 66.5335 550.332 68.0002C550.332 69.4668 551.532 70.6668 552.999 70.6668ZM552.999 73.3335C551.532 73.3335 550.332 74.5335 550.332 76.0002C550.332 77.4668 551.532 78.6668 552.999 78.6668C554.465 78.6668 555.665 77.4668 555.665 76.0002C555.665 74.5335 554.465 73.3335 552.999 73.3335ZM552.999 81.3335C551.532 81.3335 550.332 82.5335 550.332 84.0002C550.332 85.4668 551.532 86.6668 552.999 86.6668C554.465 86.6668 555.665 85.4668 555.665 84.0002C555.665 82.5335 554.465 81.3335 552.999 81.3335Z" fill="#4E4E4E" fill-opacity="0.7"/>
</g>
</g>
</g>
<g style="mix-blend-mode:luminosity">
<mask id="path-103-inside-32_18_6774" fill="white">
<path d="M525 106.8H581V165.6H525V106.8Z"/>
</mask>
<path d="M581 165.6V164.6H525V165.6V166.6H581V165.6Z" fill="#D1D3E0" mask="url(#path-103-inside-32_18_6774)"/>
<g style="mix-blend-mode:luminosity">
<g style="mix-blend-mode:luminosity">
<path d="M552.999 129.467C554.465 129.467 555.665 128.267 555.665 126.8C555.665 125.334 554.465 124.134 552.999 124.134C551.532 124.134 550.332 125.334 550.332 126.8C550.332 128.267 551.532 129.467 552.999 129.467ZM552.999 132.134C551.532 132.134 550.332 133.334 550.332 134.8C550.332 136.267 551.532 137.467 552.999 137.467C554.465 137.467 555.665 136.267 555.665 134.8C555.665 133.334 554.465 132.134 552.999 132.134ZM552.999 140.134C551.532 140.134 550.332 141.334 550.332 142.8C550.332 144.267 551.532 145.467 552.999 145.467C554.465 145.467 555.665 144.267 555.665 142.8C555.665 141.334 554.465 140.134 552.999 140.134Z" fill="#4E4E4E" fill-opacity="0.7"/>
</g>
</g>
</g>
<g style="mix-blend-mode:luminosity">
<mask id="path-106-inside-33_18_6774" fill="white">
<path d="M525 165.6H581V224.4H525V165.6Z"/>
</mask>
<path d="M581 224.4V223.4H525V224.4V225.4H581V224.4Z" fill="#D1D3E0" mask="url(#path-106-inside-33_18_6774)"/>
<g style="mix-blend-mode:luminosity">
<g style="mix-blend-mode:luminosity">
<path d="M552.999 188.267C554.465 188.267 555.665 187.067 555.665 185.6C555.665 184.133 554.465 182.933 552.999 182.933C551.532 182.933 550.332 184.133 550.332 185.6C550.332 187.067 551.532 188.267 552.999 188.267ZM552.999 190.933C551.532 190.933 550.332 192.133 550.332 193.6C550.332 195.067 551.532 196.267 552.999 196.267C554.465 196.267 555.665 195.067 555.665 193.6C555.665 192.133 554.465 190.933 552.999 190.933ZM552.999 198.933C551.532 198.933 550.332 200.133 550.332 201.6C550.332 203.067 551.532 204.267 552.999 204.267C554.465 204.267 555.665 203.067 555.665 201.6C555.665 200.133 554.465 198.933 552.999 198.933Z" fill="#4E4E4E" fill-opacity="0.7"/>
</g>
</g>
</g>
<g style="mix-blend-mode:luminosity">
<mask id="path-109-inside-34_18_6774" fill="white">
<path d="M525 224.4H581V283.2H525V224.4Z"/>
</mask>
<path d="M581 283.2V282.2H525V283.2V284.2H581V283.2Z" fill="#D1D3E0" mask="url(#path-109-inside-34_18_6774)"/>
<g style="mix-blend-mode:luminosity">
<g style="mix-blend-mode:luminosity">
<path d="M552.999 247.067C554.465 247.067 555.665 245.867 555.665 244.4C555.665 242.934 554.465 241.734 552.999 241.734C551.532 241.734 550.332 242.934 550.332 244.4C550.332 245.867 551.532 247.067 552.999 247.067ZM552.999 249.734C551.532 249.734 550.332 250.934 550.332 252.4C550.332 253.867 551.532 255.067 552.999 255.067C554.465 255.067 555.665 253.867 555.665 252.4C555.665 250.934 554.465 249.734 552.999 249.734ZM552.999 257.734C551.532 257.734 550.332 258.934 550.332 260.4C550.332 261.867 551.532 263.067 552.999 263.067C554.465 263.067 555.665 261.867 555.665 260.4C555.665 258.934 554.465 257.734 552.999 257.734Z" fill="#4E4E4E" fill-opacity="0.7"/>
</g>
</g>
</g>
<g style="mix-blend-mode:luminosity">
<mask id="path-112-inside-35_18_6774" fill="white">
<path d="M525 283.2H581V342H525V283.2Z"/>
</mask>
<path d="M581 342V341H525V342V343H581V342Z" fill="#D1D3E0" mask="url(#path-112-inside-35_18_6774)"/>
<g style="mix-blend-mode:luminosity">
<g style="mix-blend-mode:luminosity">
<rect x="538" y="296.2" width="30" height="30" rx="3" stroke="#4E4E4E" stroke-opacity="0.7" stroke-width="2"/>
<path d="M552.999 305.867C554.465 305.867 555.665 304.667 555.665 303.2C555.665 301.733 554.465 300.533 552.999 300.533C551.532 300.533 550.332 301.733 550.332 303.2C550.332 304.667 551.532 305.867 552.999 305.867ZM552.999 308.533C551.532 308.533 550.332 309.733 550.332 311.2C550.332 312.667 551.532 313.867 552.999 313.867C554.465 313.867 555.665 312.667 555.665 311.2C555.665 309.733 554.465 308.533 552.999 308.533ZM552.999 316.533C551.532 316.533 550.332 317.733 550.332 319.2C550.332 320.667 551.532 321.867 552.999 321.867C554.465 321.867 555.665 320.667 555.665 319.2C555.665 317.733 554.465 316.533 552.999 316.533Z" fill="#4E4E4E" fill-opacity="0.7"/>
</g>
</g>
</g>
<g style="mix-blend-mode:luminosity">
<mask id="path-117-inside-36_18_6774" fill="white">
<path d="M525 342H565V400.8H525V342Z"/>
</mask>
<path d="M525 342H565V400.8H525V342Z" fill="white"/>
<path d="M565 400.8V399.8H525V400.8V401.8H565V400.8Z" fill="#D1D3E0" mask="url(#path-117-inside-36_18_6774)"/>
<g style="mix-blend-mode:luminosity">
<g style="mix-blend-mode:luminosity">
<path d="M544.999 359.333C545.733 359.333 546.333 358.733 546.333 358C546.333 357.267 545.733 356.667 544.999 356.667C544.266 356.667 543.666 357.267 543.666 358C543.666 358.733 544.266 359.333 544.999 359.333ZM544.999 360.667C544.266 360.667 543.666 361.267 543.666 362C543.666 362.733 544.266 363.333 544.999 363.333C545.733 363.333 546.333 362.733 546.333 362C546.333 361.267 545.733 360.667 544.999 360.667ZM544.999 364.667C544.266 364.667 543.666 365.267 543.666 366C543.666 366.733 544.266 367.333 544.999 367.333C545.733 367.333 546.333 366.733 546.333 366C546.333 365.267 545.733 364.667 544.999 364.667Z" fill="#4E4E4E" fill-opacity="0.7"/>
</g>
</g>
</g>
<g style="mix-blend-mode:luminosity">
<mask id="path-120-inside-37_18_6774" fill="white">
<path d="M525 400.8H581V459.6H525V400.8Z"/>
</mask>
<path d="M581 459.6V458.6H525V459.6V460.6H581V459.6Z" fill="#D1D3E0" mask="url(#path-120-inside-37_18_6774)"/>
<g style="mix-blend-mode:luminosity">
<g style="mix-blend-mode:luminosity">
<path d="M552.999 423.467C554.465 423.467 555.665 422.267 555.665 420.8C555.665 419.334 554.465 418.134 552.999 418.134C551.532 418.134 550.332 419.334 550.332 420.8C550.332 422.267 551.532 423.467 552.999 423.467ZM552.999 426.134C551.532 426.134 550.332 427.334 550.332 428.8C550.332 430.267 551.532 431.467 552.999 431.467C554.465 431.467 555.665 430.267 555.665 428.8C555.665 427.334 554.465 426.134 552.999 426.134ZM552.999 434.134C551.532 434.134 550.332 435.334 550.332 436.8C550.332 438.267 551.532 439.467 552.999 439.467C554.465 439.467 555.665 438.267 555.665 436.8C555.665 435.334 554.465 434.134 552.999 434.134Z" fill="#4E4E4E" fill-opacity="0.7"/>
</g>
</g>
</g>
<g style="mix-blend-mode:luminosity">
<mask id="path-123-inside-38_18_6774" fill="white">
<path d="M525 459.6H581V518.4H525V459.6Z"/>
</mask>
<path d="M581 518.4V517.4H525V518.4V519.4H581V518.4Z" fill="#D1D3E0" mask="url(#path-123-inside-38_18_6774)"/>
<g style="mix-blend-mode:luminosity">
<g style="mix-blend-mode:luminosity">
<path d="M552.999 482.267C554.465 482.267 555.665 481.067 555.665 479.6C555.665 478.133 554.465 476.933 552.999 476.933C551.532 476.933 550.332 478.133 550.332 479.6C550.332 481.067 551.532 482.267 552.999 482.267ZM552.999 484.933C551.532 484.933 550.332 486.133 550.332 487.6C550.332 489.067 551.532 490.267 552.999 490.267C554.465 490.267 555.665 489.067 555.665 487.6C555.665 486.133 554.465 484.933 552.999 484.933ZM552.999 492.933C551.532 492.933 550.332 494.133 550.332 495.6C550.332 497.067 551.532 498.267 552.999 498.267C554.465 498.267 555.665 497.067 555.665 495.6C555.665 494.133 554.465 492.933 552.999 492.933Z" fill="#4E4E4E" fill-opacity="0.7"/>
</g>
</g>
</g>
<g style="mix-blend-mode:luminosity">
<mask id="path-126-inside-39_18_6774" fill="white">
<path d="M525 518.4H581V577.2H525V518.4Z"/>
</mask>
<path d="M581 577.2V576.2H525V577.2V578.2H581V577.2Z" fill="#D1D3E0" mask="url(#path-126-inside-39_18_6774)"/>
<g style="mix-blend-mode:luminosity">
<g style="mix-blend-mode:luminosity">
<path d="M552.999 541.067C554.465 541.067 555.665 539.867 555.665 538.4C555.665 536.933 554.465 535.733 552.999 535.733C551.532 535.733 550.332 536.933 550.332 538.4C550.332 539.867 551.532 541.067 552.999 541.067ZM552.999 543.733C551.532 543.733 550.332 544.933 550.332 546.4C550.332 547.867 551.532 549.067 552.999 549.067C554.465 549.067 555.665 547.867 555.665 546.4C555.665 544.933 554.465 543.733 552.999 543.733ZM552.999 551.733C551.532 551.733 550.332 552.933 550.332 554.4C550.332 555.867 551.532 557.067 552.999 557.067C554.465 557.067 555.665 555.867 555.665 554.4C555.665 552.933 554.465 551.733 552.999 551.733Z" fill="#4E4E4E" fill-opacity="0.7"/>
</g>
</g>
</g>
<g style="mix-blend-mode:luminosity">
<mask id="path-129-inside-40_18_6774" fill="white">
<path d="M525 577.2H581V636H525V577.2Z"/>
</mask>
<path d="M581 636V635H525V636V637H581V636Z" fill="#D1D3E0" mask="url(#path-129-inside-40_18_6774)"/>
<g style="mix-blend-mode:luminosity">
<g style="mix-blend-mode:luminosity">
<path d="M552.999 599.867C554.465 599.867 555.665 598.667 555.665 597.2C555.665 595.733 554.465 594.533 552.999 594.533C551.532 594.533 550.332 595.733 550.332 597.2C550.332 598.667 551.532 599.867 552.999 599.867ZM552.999 602.533C551.532 602.533 550.332 603.733 550.332 605.2C550.332 606.667 551.532 607.867 552.999 607.867C554.465 607.867 555.665 606.667 555.665 605.2C555.665 603.733 554.465 602.533 552.999 602.533ZM552.999 610.533C551.532 610.533 550.332 611.733 550.332 613.2C550.332 614.667 551.532 615.867 552.999 615.867C554.465 615.867 555.665 614.667 555.665 613.2C555.665 611.733 554.465 610.533 552.999 610.533Z" fill="#4E4E4E" fill-opacity="0.7"/>
</g>
</g>
</g>
</g>
</g>
<g style="mix-blend-mode:luminosity" filter="url(#filter3_d_18_6774)">
<rect x="407" y="331" width="162" height="104" rx="4" fill="white" shape-rendering="crispEdges"/>
<rect x="407" y="331" width="162" height="104" rx="4" stroke="#BBBBBB" stroke-opacity="0.7" stroke-width="2" shape-rendering="crispEdges"/>
<g style="mix-blend-mode:luminosity">
<g style="mix-blend-mode:luminosity">
<rect x="423" y="339" width="76" height="16" rx="8" fill="#A9AFB8" fill-opacity="0.7"/>
</g>
</g>
<g style="mix-blend-mode:luminosity">
<g style="mix-blend-mode:luminosity">
<rect x="423" y="363" width="112" height="16" rx="8" fill="#A9AFB8" fill-opacity="0.7"/>
</g>
</g>
<g style="mix-blend-mode:luminosity">
<mask id="path-135-inside-41_18_6774" fill="white">
<path d="M423 387H553V427H423V387Z"/>
</mask>
<path d="M423 387V388H553V387V386H423V387Z" fill="#D4D4D4" fill-opacity="0.7" mask="url(#path-135-inside-41_18_6774)"/>
<g style="mix-blend-mode:luminosity">
<path d="M429 414C429 415.1 429.9 416 431 416H439C440.1 416 441 415.1 441 414V402H429V414ZM442 399H438.5L437.5 398H432.5L431.5 399H428V401H442V399Z" fill="#A4A4A4" fill-opacity="0.7"/>
</g>
<rect x="457" y="399" width="96" height="16" rx="8" fill="#A9AFB8" fill-opacity="0.7"/>
</g>
</g>
</g>
</g>
</g>
<g filter="url(#filter4_d_18_6774)">
<rect x="450" y="39" width="96" height="81" fill="white"/>
<path d="M498.583 15C462.933 15 434 43.9333 434 79.5833C434 115.233 462.933 144.167 498.583 144.167C534.233 144.167 563.167 115.233 563.167 79.5833C563.167 43.9333 534.233 15 498.583 15ZM485.667 111.875L453.375 79.5833L462.481 70.4771L485.667 93.5979L534.685 44.5792L543.792 53.75L485.667 111.875Z" fill="#3BFF5B"/>
<path d="M909 209H988V286H909V209Z" fill="white"/>
<path d="M972.215 190H924.035L890 224.035V272.215L924.035 306.25H972.215L1006.25 272.215V224.035L972.215 190ZM980.417 272.279L972.279 280.417L948.125 256.262L923.971 280.417L915.833 272.279L939.987 248.125L915.833 223.971L923.971 215.833L948.125 239.987L972.279 215.833L980.417 223.971L956.262 248.125L980.417 272.279Z" fill="#C70000"/>
</g>
<defs>
<filter id="filter0_d_18_6774" x="445" y="167" width="585" height="644" filterUnits="userSpaceOnUse" color-interpolation-filters="sRGB">
<feFlood flood-opacity="0" result="BackgroundImageFix"/>
<feColorMatrix in="SourceAlpha" type="matrix" values="0 0 0 0 0 0 0 0 0 0 0 0 0 0 0 0 0 0 127 0" result="hardAlpha"/>
<feOffset dy="4"/>
<feGaussianBlur stdDeviation="2"/>
<feComposite in2="hardAlpha" operator="out"/>
<feColorMatrix type="matrix" values="0 0 0 0 0 0 0 0 0 0 0 0 0 0 0 0 0 0 0.25 0"/>
<feBlend mode="normal" in2="BackgroundImageFix" result="effect1_dropShadow_18_6774"/>
<feBlend mode="normal" in="SourceGraphic" in2="effect1_dropShadow_18_6774" result="shape"/>
</filter>
<filter id="filter1_d_18_6774" x="849" y="496" width="168" height="62" filterUnits="userSpaceOnUse" color-interpolation-filters="sRGB">
<feFlood flood-opacity="0" result="BackgroundImageFix"/>
<feColorMatrix in="SourceAlpha" type="matrix" values="0 0 0 0 0 0 0 0 0 0 0 0 0 0 0 0 0 0 127 0" result="hardAlpha"/>
<feOffset dy="1"/>
<feGaussianBlur stdDeviation="1"/>
<feComposite in2="hardAlpha" operator="out"/>
<feColorMatrix type="matrix" values="0 0 0 0 0 0 0 0 0 0 0 0 0 0 0 0 0 0 0.17 0"/>
<feBlend mode="normal" in2="BackgroundImageFix" result="effect1_dropShadow_18_6774"/>
<feBlend mode="normal" in="SourceGraphic" in2="effect1_dropShadow_18_6774" result="shape"/>
</filter>
<filter id="filter2_d_18_6774" x="0" y="0" width="585" height="644" filterUnits="userSpaceOnUse" color-interpolation-filters="sRGB">
<feFlood flood-opacity="0" result="BackgroundImageFix"/>
<feColorMatrix in="SourceAlpha" type="matrix" values="0 0 0 0 0 0 0 0 0 0 0 0 0 0 0 0 0 0 127 0" result="hardAlpha"/>
<feOffset dy="4"/>
<feGaussianBlur stdDeviation="2"/>
<feComposite in2="hardAlpha" operator="out"/>
<feColorMatrix type="matrix" values="0 0 0 0 0 0 0 0 0 0 0 0 0 0 0 0 0 0 0.25 0"/>
<feBlend mode="normal" in2="BackgroundImageFix" result="effect1_dropShadow_18_6774"/>
<feBlend mode="normal" in="SourceGraphic" in2="effect1_dropShadow_18_6774" result="shape"/>
</filter>
<filter id="filter3_d_18_6774" x="404" y="329" width="168" height="110" filterUnits="userSpaceOnUse" color-interpolation-filters="sRGB">
<feFlood flood-opacity="0" result="BackgroundImageFix"/>
<feColorMatrix in="SourceAlpha" type="matrix" values="0 0 0 0 0 0 0 0 0 0 0 0 0 0 0 0 0 0 127 0" result="hardAlpha"/>
<feOffset dy="1"/>
<feGaussianBlur stdDeviation="1"/>
<feComposite in2="hardAlpha" operator="out"/>
<feColorMatrix type="matrix" values="0 0 0 0 0 0 0 0 0 0 0 0 0 0 0 0 0 0 0.17 0"/>
<feBlend mode="normal" in2="BackgroundImageFix" result="effect1_dropShadow_18_6774"/>
<feBlend mode="normal" in="SourceGraphic" in2="effect1_dropShadow_18_6774" result="shape"/>
</filter>
<filter id="filter4_d_18_6774" x="430" y="15" width="580.25" height="299.25" filterUnits="userSpaceOnUse" color-interpolation-filters="sRGB">
<feFlood flood-opacity="0" result="BackgroundImageFix"/>
<feColorMatrix in="SourceAlpha" type="matrix" values="0 0 0 0 0 0 0 0 0 0 0 0 0 0 0 0 0 0 127 0" result="hardAlpha"/>
<feOffset dy="4"/>
<feGaussianBlur stdDeviation="2"/>
<feComposite in2="hardAlpha" operator="out"/>
<feColorMatrix type="matrix" values="0 0 0 0 0 0 0 0 0 0 0 0 0 0 0 0 0 0 0.25 0"/>
<feBlend mode="normal" in2="BackgroundImageFix" result="effect1_dropShadow_18_6774"/>
<feBlend mode="normal" in="SourceGraphic" in2="effect1_dropShadow_18_6774" result="shape"/>
</filter>
<clipPath id="clip0_18_6774">
<rect x="449" y="167" width="577" height="636" rx="20" fill="white"/>
</clipPath>
<clipPath id="clip1_18_6774">
<rect width="578" height="637" fill="white" transform="translate(449 167)"/>
</clipPath>
<clipPath id="clip2_18_6774">
<rect x="4" width="577" height="636" rx="20" fill="white"/>
</clipPath>
<clipPath id="clip3_18_6774">
<rect width="578" height="637" fill="white" transform="translate(4)"/>
</clipPath>
</defs>
</svg>
